# Blender 5.1.0
# www.blender.org
mtllib SM_EXTTripleWindowWall.mtl
o Wall
v 0.000000 0.000000 0.210347
v 0.000000 4.000000 0.210347
v 0.000000 0.000000 -0.410347
v 0.000000 4.000000 -0.410347
v 2.000000 0.000000 0.210347
v 2.000000 4.000000 0.210347
v 2.000000 0.000000 -0.410347
v 2.000000 4.000000 -0.410347
v 0.000000 3.000000 0.210347
v 0.000000 3.000000 -0.410347
v 2.000000 3.000000 -0.410347
v 2.000000 3.000000 0.210347
v 0.000000 1.002717 -0.410347
v 2.000000 1.002717 -0.410347
v 2.000000 1.002717 0.210347
v 0.000000 1.002717 0.210347
v 1.500000 0.000000 -0.410347
v 1.500000 4.000000 -0.410347
v 1.500000 0.000000 0.210347
v 1.500000 4.000000 0.210347
v 1.500000 3.000000 0.210347
v 1.500000 3.000000 -0.410347
v 1.500000 1.002717 -0.410347
v 1.500000 1.002717 0.210347
v 0.500000 0.000000 -0.410347
v 0.500000 4.000000 0.210347
v 0.500000 3.000000 0.210347
v 0.500000 1.002717 0.210347
v 0.500000 4.000000 -0.410347
v 0.500000 0.000000 0.210347
v 0.500000 3.000000 -0.410347
v 0.500000 1.002717 -0.410347
v -2.000000 0.000000 0.210347
v -2.000000 4.000000 0.210347
v -2.000000 0.000000 -0.410347
v -2.000000 4.000000 -0.410347
v -2.000000 3.000000 -0.410347
v -2.000000 3.000000 0.210347
v -2.000000 1.002717 -0.410347
v -2.000000 1.002717 0.210347
v -1.500000 0.000000 -0.410347
v -1.500000 4.000000 -0.410347
v -1.500000 0.000000 0.210347
v -1.500000 4.000000 0.210347
v -1.500000 3.000000 0.210347
v -1.500000 3.000000 -0.410347
v -1.500000 1.002717 -0.410347
v -1.500000 1.002717 0.210347
v -0.500000 0.000000 -0.410347
v -0.500000 4.000000 0.210347
v -0.500000 3.000000 0.210347
v -0.500000 1.002717 0.210347
v -0.500000 4.000000 -0.410347
v -0.500000 0.000000 0.210347
v -0.500000 3.000000 -0.410347
v -0.500000 1.002717 -0.410347
v -1.408000 2.908000 -0.443745
v -1.408000 1.089738 -0.443745
v -1.408000 2.908000 0.210347
v -1.408000 1.089738 0.210347
v 1.408000 2.908000 -0.443745
v 1.408000 1.089738 -0.443745
v 1.408000 2.908000 0.210347
v 1.408000 1.089738 0.210347
v -1.368710 2.868678 -0.231802
v -1.367882 1.131744 -0.229150
v -1.367039 2.865062 -0.046704
v -1.367882 1.131744 -0.044100
v 1.366928 2.868678 -0.231802
v 1.366100 1.131744 -0.229150
v 1.365257 2.865062 -0.046704
v 1.366100 1.131744 -0.044100
v 1.366100 1.131744 -0.090363
v 1.366100 1.131744 -0.182888
v 1.366100 2.865571 -0.092990
v 1.366101 2.868214 -0.185515
v -1.367882 2.865571 -0.092990
v -1.367882 2.868214 -0.185515
v -1.367882 1.131744 -0.090363
v -1.367882 1.131744 -0.182888
v -1.500000 3.000000 -0.443745
v -1.500000 0.997738 -0.443745
v -1.500000 3.000000 0.210347
v -1.500000 0.997738 0.210347
v 1.500000 3.000000 -0.443745
v 1.500000 0.997738 -0.443745
v 1.500000 3.000000 0.210347
v 1.500000 0.997738 0.210347
v -1.459882 2.961498 -0.229150
v -1.459882 1.039744 -0.229150
v -1.459882 2.956212 -0.044100
v -1.459882 1.039744 -0.044100
v 1.458100 2.961498 -0.229150
v 1.458100 1.039744 -0.229150
v 1.458100 2.956212 -0.044100
v 1.458100 1.039744 -0.044100
v 1.458100 1.039744 -0.090363
v 1.458100 1.039744 -0.182888
v 1.458100 2.957533 -0.090363
v 1.458100 2.960177 -0.182888
v -1.459882 2.957533 -0.090363
v -1.459882 2.960177 -0.182888
v -1.459882 1.039744 -0.090363
v -1.459882 1.039744 -0.182888
v -0.389888 1.131744 -0.229150
v 0.388106 1.131744 -0.229150
v 0.388106 1.131744 -0.044100
v -0.389888 1.131744 -0.044100
v -0.389888 1.131744 -0.182888
v 0.388106 1.131744 -0.182888
v -0.389888 1.131744 -0.090363
v 0.388106 1.131744 -0.090363
v -0.420554 1.039744 -0.229150
v 0.418773 1.039744 -0.229150
v 0.418773 1.039744 -0.044100
v -0.420555 1.039744 -0.044100
v -0.420554 1.039744 -0.182888
v 0.418773 1.039744 -0.182888
v -0.420554 1.039744 -0.090363
v 0.418773 1.039744 -0.090363
v 0.557459 1.131744 -0.229150
v 0.557459 1.131744 -0.182888
v 0.557459 1.131744 -0.090363
v 0.562059 1.039744 -0.229150
v 0.562059 1.039744 -0.182888
v 0.562059 1.039744 -0.090363
v 0.557459 1.131744 -0.044100
v 0.562059 1.039744 -0.044100
v 0.440760 1.131744 -0.044100
v 0.436160 1.039744 -0.044100
v 0.440760 1.131744 -0.229150
v 0.440760 1.131744 -0.182888
v 0.440760 1.131744 -0.090363
v 0.436160 1.039744 -0.229150
v 0.436160 1.039744 -0.182888
v 0.436160 1.039744 -0.090363
v 0.440718 2.868678 -0.231802
v 0.440760 2.868214 -0.185515
v 0.440760 2.865571 -0.092990
v 0.436160 2.961498 -0.229150
v 0.436160 2.960177 -0.182888
v 0.436160 2.957533 -0.090363
v 0.440802 2.865062 -0.046704
v 0.436160 2.956212 -0.044100
v 0.557417 2.865062 -0.046704
v 0.562059 2.956212 -0.044100
v 0.557500 2.868678 -0.231802
v 0.557459 2.868214 -0.185515
v 0.557459 2.865571 -0.092990
v 0.562059 2.961498 -0.229150
v 0.562059 2.960177 -0.182888
v 0.562059 2.957533 -0.090363
v -1.366790 1.133982 -0.095701
v -1.366790 2.864717 -0.095701
v -1.366790 1.133982 -0.134175
v -1.366790 2.864717 -0.134175
v 0.440429 1.133982 -0.095701
v 0.440429 2.864717 -0.095701
v 0.440429 1.133982 -0.134175
v 0.440429 2.864717 -0.134175
v 0.555631 1.133982 -0.095701
v 0.555631 2.864717 -0.095701
v 0.555631 1.133982 -0.134175
v 0.555631 2.864717 -0.134175
v 1.362850 1.133982 -0.095701
v 1.362850 2.864717 -0.095701
v 1.362850 1.133982 -0.134175
v 1.362850 2.864717 -0.134175
vn -1.0000 -0.0000 -0.0000
vn -0.0000 -0.0000 -1.0000
vn 1.0000 -0.0000 -0.0000
vn -0.0000 -0.0000 1.0000
vn -0.0000 -1.0000 -0.0000
vn -0.0000 1.0000 -0.0000
vn -1.0000 -0.0001 -0.0046
vn -1.0000 -0.0003 -0.0091
vn -1.0000 -0.0001 -0.0045
vn -0.0000 -0.9998 -0.0198
vn -0.0000 -0.9999 -0.0110
vn 1.0000 -0.0001 -0.0046
vn 1.0000 -0.0001 -0.0045
vn 1.0000 -0.0003 -0.0091
vn 1.0000 0.0001 -0.0045
vn 1.0000 0.0002 -0.0089
vn -0.0000 -0.9998 -0.0193
vn -0.0000 -0.9998 -0.0192
vn -0.0000 -0.9999 -0.0100
vn -1.0000 0.0001 -0.0045
vn -1.0000 0.0002 -0.0089
vn -0.0000 0.9996 0.0286
vn -0.0000 0.0286 -0.9996
vn -0.0073 0.0139 -0.9999
vn -0.0072 0.0141 -0.9999
vn -0.0070 -0.0140 0.9999
vn -0.0070 0.0004 1.0000
vn -0.0071 -0.0138 0.9999
vn -0.0072 -0.0004 -1.0000
vn 0.0070 0.0004 1.0000
vn 0.0070 -0.0140 0.9999
vn 0.0071 -0.0138 0.9999
vn 0.0072 -0.0004 -1.0000
vn 0.0073 0.0139 -0.9999
vn 0.0072 0.0141 -0.9999
vn -0.0000 -0.0286 0.9996
vt 0.562500 0.000000
vt 0.625000 0.000000
vt 0.625000 0.250000
vt 0.562500 0.250000
vt 0.562500 0.375000
vt 0.625000 0.375000
vt 0.625000 0.500000
vt 0.562500 0.500000
vt 0.625000 0.750000
vt 0.562500 0.750000
vt 0.562500 0.937500
vt 0.625000 0.937500
vt 0.625000 1.000000
vt 0.562500 1.000000
vt 0.250000 0.500000
vt 0.375000 0.500000
vt 0.375000 0.750000
vt 0.250000 0.750000
vt 0.812500 0.500000
vt 0.875000 0.500000
vt 0.875000 0.750000
vt 0.812500 0.750000
vt 0.437670 0.500000
vt 0.437670 0.750000
vt 0.437670 0.375000
vt 0.375000 0.000000
vt 0.437670 0.000000
vt 0.437670 0.250000
vt 0.375000 0.250000
vt 0.375000 0.375000
vt 0.375000 0.937500
vt 0.437670 0.937500
vt 0.437670 1.000000
vt 0.375000 1.000000
vt 0.437670 0.875000
vt 0.375000 0.875000
vt 0.375000 0.312500
vt 0.437670 0.312500
vt 0.562500 0.875000
vt 0.750000 0.500000
vt 0.750000 0.750000
vt 0.187500 0.500000
vt 0.187500 0.750000
vt 0.625000 0.875000
vt 0.562500 0.312500
vt 0.625000 0.312500
vt 0.125000 0.500000
vt 0.125000 0.750000
vt 0.437359 0.437500
vt 0.437359 0.812500
vt 0.562500 0.812500
vt 0.562500 0.437500
vt 0.437359 0.718750
vt 0.562500 0.718750
vt 0.562500 0.718750
vt 0.562500 0.812500
vt 0.437359 0.718750
vt 0.437359 0.812500
vt 0.437359 0.531250
vt 0.562500 0.531250
vt 0.437359 0.718750
vt 0.562500 0.531250
vt 0.562500 0.437500
vt 0.437359 0.437500
vt 0.437359 0.437500
vt 0.437359 0.718750
vt 0.437359 0.437500
vt 0.437359 0.531250
vt 0.437359 0.437500
vt 0.437359 0.812500
vt 0.437359 0.718750
vt 0.562500 0.718750
vt 0.562500 0.437500
vt 0.562500 0.718750
vt 0.562500 0.531250
s 1
usemtl BaseColor
f 9/1/1 2/2/1 4/3/1 10/4/1
f 22/5/2 18/6/2 8/7/2 11/8/2
f 11/8/3 8/7/3 6/9/3 12/10/3
f 27/11/4 26/12/4 2/13/4 9/14/4
f 17/15/5 7/16/5 5/17/5 19/18/5
f 29/19/6 4/20/6 2/21/6 26/22/6
f 14/23/3 11/8/3 12/10/3 15/24/3
f 23/25/2 22/5/2 11/8/2 14/23/2
f 1/26/1 16/27/1 13/28/1 3/29/1
f 17/30/2 23/25/2 14/23/2 7/16/2
f 7/16/3 14/23/3 15/24/3 5/17/3
f 30/31/4 28/32/4 16/33/4 1/34/4
f 5/17/4 15/24/4 24/35/4 19/36/4
f 25/37/2 32/38/2 23/25/2 17/30/2
f 15/24/4 12/10/4 21/39/4 24/35/4
f 8/7/6 18/40/6 20/41/6 6/9/6
f 25/42/5 17/15/5 19/18/5 30/43/5
f 12/10/4 6/9/4 20/44/4 21/39/4
f 31/45/2 29/46/2 18/6/2 22/5/2
f 10/4/2 4/3/2 29/46/2 31/45/2
f 3/47/5 25/42/5 30/43/5 1/48/5
f 3/29/2 13/28/2 32/38/2 25/37/2
f 19/36/4 24/35/4 28/32/4 30/31/4
f 18/40/6 29/19/6 26/22/6 20/41/6
f 21/39/4 20/44/4 26/12/4 27/11/4
f 21/39/1 22/5/1 23/25/1 24/35/1
f 22/5/5 21/39/5 27/11/5 9/1/5 10/4/5 31/45/5
f 23/25/6 32/38/6 13/28/6 16/27/6 28/32/6 24/35/6
f 46/5/2 37/8/2 36/7/2 42/6/2
f 37/8/1 38/10/1 34/9/1 36/7/1
f 51/11/4 9/14/4 2/13/4 50/12/4
f 41/15/5 43/18/5 33/17/5 35/16/5
f 53/19/6 50/22/6 2/21/6 4/20/6
f 39/23/1 40/24/1 38/10/1 37/8/1
f 47/25/2 39/23/2 37/8/2 46/5/2
f 41/30/2 35/16/2 39/23/2 47/25/2
f 35/16/1 33/17/1 40/24/1 39/23/1
f 54/31/4 1/34/4 16/33/4 52/32/4
f 33/17/4 43/36/4 48/35/4 40/24/4
f 49/37/2 41/30/2 47/25/2 56/38/2
f 40/24/4 48/35/4 45/39/4 38/10/4
f 36/7/6 34/9/6 44/41/6 42/40/6
f 49/42/5 54/43/5 43/18/5 41/15/5
f 38/10/4 45/39/4 44/44/4 34/9/4
f 55/45/2 46/5/2 42/6/2 53/46/2
f 10/4/2 55/45/2 53/46/2 4/3/2
f 3/47/5 1/48/5 54/43/5 49/42/5
f 3/29/2 49/37/2 56/38/2 13/28/2
f 43/36/4 54/31/4 52/32/4 48/35/4
f 42/40/6 44/41/6 50/22/6 53/19/6
f 45/39/4 51/11/4 50/12/4 44/44/4
f 45/39/3 48/35/3 47/25/3 46/5/3
f 46/5/5 55/45/5 10/4/5 9/1/5 51/11/5 45/39/5
f 47/25/6 48/35/6 52/32/6 16/27/6 13/28/6 56/38/6
usemtl WindowFrameColor
f 62/49/1 64/50/1 63/51/1 61/52/1
f 61/52/5 63/51/5 59/51/5 57/52/5
f 58/49/3 57/52/3 59/51/3 60/50/3
f 62/49/6 58/49/6 60/50/6 64/50/6
f 73/53/7 72/50/8 71/51/8 75/54/9
f 139/55/10 143/56/11 67/51/11 77/55/10
f 79/53/12 77/55/13 67/51/14 68/50/14
f 111/57/6 79/53/6 68/50/6 108/58/6
f 105/49/6 66/49/6 80/59/6 109/59/6
f 80/59/15 78/60/15 77/55/13 79/53/12
f 66/49/16 65/52/16 78/60/15 80/59/15
f 138/60/17 139/55/10 77/55/10 78/60/18
f 137/52/19 138/60/17 78/60/18 65/52/19
f 74/59/20 73/53/7 75/54/9 76/60/20
f 70/49/21 74/59/20 76/60/20 69/52/21
f 109/59/6 80/59/6 79/53/6 111/57/6
f 86/49/3 85/52/3 87/51/3 88/50/3
f 85/52/6 81/52/6 83/51/6 87/51/6
f 82/49/1 84/50/1 83/51/1 81/52/1
f 86/49/5 88/50/5 84/50/5 82/49/5
f 97/53/3 99/54/3 95/51/3 96/50/3
f 142/55/22 101/55/22 91/51/22 144/51/22
f 103/53/1 92/50/1 91/51/1 101/55/1
f 119/61/5 116/50/5 92/50/5 103/53/5
f 113/49/5 117/59/5 104/59/5 90/49/5
f 104/59/1 103/53/1 101/55/1 102/60/1
f 90/49/1 104/59/1 102/60/1 89/52/1
f 141/62/22 102/60/22 101/55/22 142/55/22
f 140/63/22 89/52/22 102/60/22 141/62/22
f 98/59/3 100/60/3 99/54/3 97/53/3
f 94/49/3 93/52/3 100/60/3 98/59/3
f 117/59/5 119/61/5 103/53/5 104/59/5
f 61/52/2 57/52/2 81/52/2 85/52/2
f 63/51/4 64/50/4 88/50/4 87/51/4
f 57/52/2 58/49/2 82/49/2 81/52/2
f 60/50/4 59/51/4 83/51/4 84/50/4
f 58/49/2 62/49/2 86/49/2 82/49/2
f 62/49/2 61/52/2 85/52/2 86/49/2
f 64/50/4 60/50/4 84/50/4 88/50/4
f 59/51/4 63/51/4 87/51/4 83/51/4
f 137/52/23 65/52/24 89/52/25 140/63/23
f 71/51/26 72/50/27 96/50/27 95/51/28
f 65/52/24 66/49/29 90/49/29 89/52/25
f 68/50/30 67/51/31 91/51/32 92/50/30
f 106/64/2 70/49/33 94/49/33 114/65/2
f 70/49/33 69/52/34 93/52/35 94/49/33
f 108/58/4 68/50/30 92/50/30 116/50/4
f 145/56/36 71/51/26 95/51/28 146/51/36
f 72/50/27 107/50/4 115/50/4 96/50/27
f 129/58/4 108/58/4 116/50/4 130/50/4
f 66/49/29 105/49/2 113/49/2 90/49/29
f 121/64/4 106/64/4 114/65/4 124/49/4
f 98/59/5 97/53/5 120/53/5 118/59/5
f 135/59/5 136/66/5 119/61/5 117/59/5
f 94/49/5 98/59/5 118/59/5 114/65/5
f 134/67/5 135/59/5 117/59/5 113/49/5
f 97/53/5 96/50/5 115/50/5 120/53/5
f 136/66/5 130/50/5 116/50/5 119/61/5
f 74/59/6 110/68/6 112/53/6 73/53/6
f 132/59/6 109/59/6 111/57/6 133/53/6
f 70/49/6 106/64/6 110/68/6 74/59/6
f 131/69/6 105/49/6 109/59/6 132/59/6
f 73/53/6 112/53/6 107/50/6 72/50/6
f 133/53/6 111/57/6 108/58/6 129/58/6
f 107/50/2 127/70/2 128/50/2 115/50/2
f 118/59/6 120/53/6 126/53/6 125/59/6
f 114/65/6 118/59/6 125/59/6 124/49/6
f 120/53/6 115/50/6 128/50/6 126/53/6
f 110/68/5 122/59/5 123/71/5 112/53/5
f 106/64/5 121/64/5 122/59/5 110/68/5
f 112/53/5 123/71/5 127/70/5 107/50/5
f 105/49/2 131/69/2 134/67/2 113/49/2
f 67/51/31 143/56/36 144/51/36 91/51/32
f 75/54/10 71/51/11 145/56/11 149/72/10
f 76/60/18 75/54/10 149/72/10 148/60/17
f 69/52/19 76/60/18 148/60/17 147/73/19
f 99/54/22 152/74/22 146/51/22 95/51/22
f 100/60/22 151/75/22 152/74/22 99/54/22
f 93/52/22 150/52/22 151/75/22 100/60/22
f 69/52/34 147/73/23 150/52/23 93/52/35
usemtl PaneColor
f 153/26/1 154/2/1 156/3/1 155/29/1
f 155/29/2 156/3/2 160/7/2 159/16/2
f 157/17/4 158/9/4 154/13/4 153/34/4
f 155/47/5 159/16/5 157/17/5 153/48/5
f 160/7/6 156/20/6 154/21/6 158/9/6
f 163/29/2 164/3/2 168/7/2 167/16/2
f 167/16/3 168/7/3 166/9/3 165/17/3
f 165/17/4 166/9/4 162/13/4 161/34/4
f 163/47/5 167/16/5 165/17/5 161/48/5
f 168/7/6 164/20/6 162/21/6 166/9/6
o Trim
v 2.003318 0.856942 -0.410556
v 2.003318 0.990236 -0.503818
v 2.003318 0.955999 -0.517546
v 2.003318 1.002767 -0.410556
v 2.003318 1.002767 -0.485065
v 2.003318 0.909231 -0.522570
v 2.003318 0.856942 -0.522570
v 0.004059 0.856942 -0.522570
v 0.004059 0.909231 -0.522570
v 0.004059 1.002767 -0.485065
v 0.004059 1.002767 -0.410556
v 0.004059 0.955999 -0.517546
v 0.004059 0.990236 -0.503818
v 0.004059 0.856942 -0.410556
v 0.003318 0.856942 -0.410556
v 0.003318 0.990236 -0.503818
v 0.003318 0.955999 -0.517546
v 0.003318 1.002767 -0.410556
v 0.003318 1.002767 -0.485065
v 0.003318 0.909231 -0.522570
v 0.003318 0.856942 -0.522570
v -1.995941 0.856942 -0.522570
v -1.995941 0.909231 -0.522570
v -1.995941 1.002767 -0.485065
v -1.995941 1.002767 -0.410556
v -1.995941 0.955999 -0.517546
v -1.995941 0.990236 -0.503818
v -1.995941 0.856942 -0.410556
vn -0.0000 0.2418 -0.9703
vn -0.0000 0.3722 -0.9282
vn -0.0000 0.0535 -0.9986
vn -0.0000 1.0000 -0.0000
vn 1.0000 -0.0000 -0.0000
vn -0.0000 -0.0000 -1.0000
vn -0.0000 0.8314 -0.5556
vn -0.0000 -1.0000 -0.0000
vn -0.0000 -0.0000 1.0000
vn -1.0000 -0.0000 -0.0000
vt 0.345366 0.502977
vt 0.329786 0.541853
vt 0.535357 0.449083
vt 0.404448 0.450918
vt 0.324083 0.583706
vt 0.324083 0.750000
vt 0.675917 0.500000
vt 0.375000 0.800917
vt 0.675917 0.750000
vt 0.625000 0.449083
vt 0.625000 0.800917
s 1
f 180/76/37 181/77/38 170/77/38 171/76/37
f 177/78/39 180/79/37 171/79/37 174/78/39
f 178/80/40 179/81/40 172/81/40 173/80/40
f 175/82/41 174/78/41 171/76/41 170/77/41 173/80/41 172/83/41 169/84/41
f 176/85/42 177/78/39 174/78/39 175/85/42
f 181/77/43 178/80/43 173/80/43 170/77/43
f 182/84/44 176/82/44 175/82/44 169/84/44
f 179/83/45 182/86/45 169/86/45 172/83/45
f 182/84/46 179/81/46 178/80/46 181/77/46 180/79/46 177/78/46 176/82/46
f 194/76/37 195/77/38 184/77/38 185/76/37
f 191/78/39 194/79/37 185/79/37 188/78/39
f 192/80/40 193/81/40 186/81/40 187/80/40
f 189/82/41 188/78/41 185/76/41 184/77/41 187/80/41 186/83/41 183/84/41
f 190/85/42 191/78/39 188/78/39 189/85/42
f 195/77/43 192/80/43 187/80/43 184/77/43
f 196/84/44 190/82/44 189/82/44 183/84/44
f 193/83/45 196/86/45 183/86/45 186/83/45
f 196/84/46 193/81/46 192/80/46 195/77/46 194/79/46 191/78/46 190/82/46
o Wall.001
v 0.499109 1.131744 -0.229150
v 0.499109 1.131744 -0.044100
v 0.499109 1.131744 -0.182888
v 0.499109 1.131744 -0.090363
v 0.499109 1.039744 -0.229150
v 0.499109 1.039744 -0.044100
v 0.499109 1.039744 -0.182888
v 0.499109 1.039744 -0.090363
v 0.557459 1.131744 -0.229150
v 0.557459 1.131744 -0.182888
v 0.557459 1.131744 -0.090363
v 0.562059 1.039744 -0.229150
v 0.562059 1.039744 -0.182888
v 0.562059 1.039744 -0.090363
v 0.557459 1.131744 -0.044100
v 0.562059 1.039744 -0.044100
v 0.440760 1.131744 -0.044100
v 0.436160 1.039744 -0.044100
v 0.440760 1.131744 -0.229150
v 0.440760 1.131744 -0.182888
v 0.440760 1.131744 -0.090363
v 0.436160 1.039744 -0.229150
v 0.436160 1.039744 -0.182888
v 0.436160 1.039744 -0.090363
v 0.499109 2.868678 -0.231802
v 0.499109 2.865062 -0.046704
v 0.499109 2.868214 -0.185515
v 0.499109 2.865571 -0.092990
v 0.499109 2.961498 -0.229150
v 0.499109 2.956212 -0.044100
v 0.499109 2.960177 -0.182888
v 0.499109 2.957533 -0.090363
v 0.440718 2.868678 -0.231802
v 0.440760 2.868214 -0.185515
v 0.440760 2.865571 -0.092990
v 0.436160 2.961498 -0.229150
v 0.436160 2.960177 -0.182888
v 0.436160 2.957533 -0.090363
v 0.440802 2.865062 -0.046704
v 0.436160 2.956212 -0.044100
v 0.557417 2.865062 -0.046704
v 0.562059 2.956212 -0.044100
v 0.557500 2.868678 -0.231802
v 0.557459 2.868214 -0.185515
v 0.557459 2.865571 -0.092990
v 0.562059 2.961498 -0.229150
v 0.562059 2.960177 -0.182888
v 0.562059 2.957533 -0.090363
v 0.440429 1.133982 -0.095701
v 0.440429 2.864717 -0.095701
v 0.440429 1.133982 -0.134175
v 0.440429 2.864717 -0.134175
v 0.555631 1.133982 -0.095701
v 0.555631 2.864717 -0.095701
v 0.555631 1.133982 -0.134175
v 0.555631 2.864717 -0.134175
vn -0.0000 1.0000 -0.0000
vn -0.0000 -1.0000 -0.0000
vn -0.0000 -0.0000 -1.0000
vn -0.0000 -0.0000 1.0000
vn -0.0000 -0.0286 0.9996
vn -0.0000 0.0286 -0.9996
vn -0.0000 0.9996 0.0286
vn -0.0000 -0.9999 -0.0100
vn -0.0000 -0.9999 -0.0110
vn -0.0000 -0.0015 -1.0000
vn -1.0000 -0.0000 -0.0000
vn 1.0000 -0.0000 -0.0000
vn -0.0000 0.0015 1.0000
vt 0.437359 0.718750
vt 0.437359 0.718750
vt 0.437359 0.812500
vt 0.437359 0.812500
vt 0.437359 0.437500
vt 0.437359 0.437500
vt 0.437359 0.531250
vt 0.437359 0.812500
vt 0.437359 0.437500
vt 0.437359 0.437500
vt 0.437359 0.437500
vt 0.437359 0.812500
vt 0.437359 0.718750
vt 0.562500 0.812500
vt 0.562500 0.812500
vt 0.562500 0.812500
vt 0.562500 0.437500
vt 0.562500 0.437500
vt 0.562500 0.531250
vt 0.562500 0.531250
vt 0.562500 0.718750
vt 0.562500 0.718750
vt 0.562500 0.718750
vt 0.562500 0.437500
vt 0.562500 0.531250
vt 0.000000 0.000000
vt 0.375000 0.500000
vt 0.375000 0.750000
vt 0.625000 0.750000
vt 0.625000 0.500000
vt 0.375000 0.000000
vt 0.375000 0.250000
vt 0.625000 0.250000
vt 0.625000 0.000000
s 1
usemtl WindowFrameColor
f 207/87/47 200/88/47 198/89/47 211/90/47
f 205/91/47 197/92/47 199/93/47 206/93/47
f 206/93/48 207/87/48 200/88/48 199/93/48
f 210/88/48 212/94/48 202/94/48 204/88/48
f 208/95/48 209/93/48 203/93/48 201/95/48
f 209/93/48 210/88/48 204/88/48 203/93/48
f 215/96/49 197/92/49 201/95/49 218/97/49
f 211/90/50 198/89/50 202/94/50 212/94/50
f 197/92/49 205/91/49 208/95/49 201/95/49
f 200/88/47 217/88/47 213/98/47 198/89/47
f 197/92/47 215/96/47 216/93/47 199/93/47
f 199/93/48 200/88/48 217/88/48 216/93/48
f 204/88/48 202/94/48 214/94/48 220/99/48
f 201/95/48 203/93/48 219/93/48 218/97/48
f 203/93/48 204/88/48 220/99/48 219/93/48
f 198/89/50 213/98/50 214/94/50 202/94/50
f 235/100/51 222/101/51 226/102/51 236/102/51
f 239/103/52 221/104/52 225/104/52 242/104/52
f 242/104/53 225/104/53 227/105/53 243/106/53
f 243/106/53 227/105/53 228/107/53 244/108/53
f 244/108/53 228/107/53 226/102/53 238/102/53
f 239/103/54 240/105/54 223/105/54 221/104/54
f 240/105/53 223/105/53 224/109/53 241/109/53
f 241/109/55 237/100/55 222/101/55 224/109/55
f 221/104/52 229/104/52 232/110/52 225/104/52
f 225/104/53 232/110/53 233/111/53 227/105/53
f 227/105/53 233/111/53 234/107/53 228/107/53
f 228/107/53 234/107/53 236/102/53 226/102/53
f 221/104/54 223/105/54 230/105/54 229/104/54
f 223/105/53 230/105/53 231/107/53 224/109/53
f 224/109/55 222/101/55 235/100/55 231/107/55
f 222/101/51 237/100/51 238/102/51 226/102/51
f 230/112/56 223/112/56 240/112/56 206/112/56 199/112/56 216/112/56
f 216/112/57 217/112/57 231/112/57 230/112/57
f 206/112/58 240/112/58 241/112/58 207/112/58
f 231/112/59 217/112/59 200/112/59 207/112/59 241/112/59 224/112/59
usemtl PaneColor
f 247/113/57 245/114/57 246/115/57 248/116/57
f 249/117/58 251/118/58 252/119/58 250/120/58
o Wall.002
v -0.600891 1.131744 -0.229150
v -0.600891 1.131744 -0.044100
v -0.600891 1.131744 -0.182888
v -0.600891 1.131744 -0.090363
v -0.600891 1.039744 -0.229150
v -0.600891 1.039744 -0.044100
v -0.600891 1.039744 -0.182888
v -0.600891 1.039744 -0.090363
v -0.542541 1.131744 -0.229150
v -0.542541 1.131744 -0.182888
v -0.542541 1.131744 -0.090363
v -0.537941 1.039744 -0.229150
v -0.537941 1.039744 -0.182888
v -0.537941 1.039744 -0.090363
v -0.542541 1.131744 -0.044100
v -0.537941 1.039744 -0.044100
v -0.659240 1.131744 -0.044100
v -0.663840 1.039744 -0.044100
v -0.659240 1.131744 -0.229150
v -0.659240 1.131744 -0.182888
v -0.659240 1.131744 -0.090363
v -0.663840 1.039744 -0.229150
v -0.663840 1.039744 -0.182888
v -0.663840 1.039744 -0.090363
v -0.600891 2.868678 -0.231802
v -0.600891 2.865062 -0.046704
v -0.600891 2.868214 -0.185515
v -0.600891 2.865571 -0.092990
v -0.600891 2.961498 -0.229150
v -0.600891 2.956212 -0.044100
v -0.600891 2.960177 -0.182888
v -0.600891 2.957533 -0.090363
v -0.659282 2.868678 -0.231802
v -0.659240 2.868214 -0.185515
v -0.659240 2.865571 -0.092990
v -0.663840 2.961498 -0.229150
v -0.663840 2.960177 -0.182888
v -0.663840 2.957533 -0.090363
v -0.659198 2.865062 -0.046704
v -0.663840 2.956212 -0.044100
v -0.542583 2.865062 -0.046704
v -0.537941 2.956212 -0.044100
v -0.542500 2.868678 -0.231802
v -0.542541 2.868214 -0.185515
v -0.542541 2.865571 -0.092990
v -0.537941 2.961498 -0.229150
v -0.537941 2.960177 -0.182888
v -0.537941 2.957533 -0.090363
v -0.659571 1.133982 -0.095701
v -0.659571 2.864717 -0.095701
v -0.659571 1.133982 -0.134175
v -0.659571 2.864717 -0.134175
v -0.544370 1.133982 -0.095701
v -0.544370 2.864717 -0.095701
v -0.544370 1.133982 -0.134175
v -0.544370 2.864717 -0.134175
vn -0.0000 1.0000 -0.0000
vn -0.0000 -1.0000 -0.0000
vn -0.0000 -0.0000 -1.0000
vn -0.0000 -0.0000 1.0000
vn -0.0000 -0.0286 0.9996
vn -0.0000 0.0286 -0.9996
vn -0.0000 0.9996 0.0286
vn -0.0000 -0.9999 -0.0100
vn -0.0000 -0.9999 -0.0110
vn -0.0000 -0.0015 -1.0000
vn -1.0000 -0.0000 -0.0000
vn 1.0000 -0.0000 -0.0000
vn -0.0000 0.0015 1.0000
vt 0.437359 0.718750
vt 0.437359 0.718750
vt 0.437359 0.812500
vt 0.437359 0.812500
vt 0.437359 0.437500
vt 0.437359 0.437500
vt 0.437359 0.531250
vt 0.437359 0.812500
vt 0.437359 0.437500
vt 0.437359 0.437500
vt 0.437359 0.437500
vt 0.437359 0.812500
vt 0.437359 0.718750
vt 0.562500 0.812500
vt 0.562500 0.812500
vt 0.562500 0.812500
vt 0.562500 0.437500
vt 0.562500 0.437500
vt 0.562500 0.531250
vt 0.562500 0.531250
vt 0.562500 0.718750
vt 0.562500 0.718750
vt 0.562500 0.718750
vt 0.562500 0.437500
vt 0.562500 0.531250
vt 0.000000 0.000000
vt 0.375000 0.500000
vt 0.625000 0.500000
vt 0.625000 0.750000
vt 0.375000 0.750000
vt 0.375000 0.000000
vt 0.625000 0.000000
vt 0.625000 0.250000
vt 0.375000 0.250000
s 1
usemtl WindowFrameColor.001
f 263/121/60 256/122/60 254/123/60 267/124/60
f 261/125/60 253/126/60 255/127/60 262/127/60
f 262/127/61 263/121/61 256/122/61 255/127/61
f 266/122/61 268/128/61 258/128/61 260/122/61
f 264/129/61 265/127/61 259/127/61 257/129/61
f 265/127/61 266/122/61 260/122/61 259/127/61
f 271/130/62 253/126/62 257/129/62 274/131/62
f 267/124/63 254/123/63 258/128/63 268/128/63
f 253/126/62 261/125/62 264/129/62 257/129/62
f 256/122/60 273/122/60 269/132/60 254/123/60
f 253/126/60 271/130/60 272/127/60 255/127/60
f 255/127/61 256/122/61 273/122/61 272/127/61
f 260/122/61 258/128/61 270/128/61 276/133/61
f 257/129/61 259/127/61 275/127/61 274/131/61
f 259/127/61 260/122/61 276/133/61 275/127/61
f 254/123/63 269/132/63 270/128/63 258/128/63
f 291/134/64 278/135/64 282/136/64 292/136/64
f 295/137/65 277/138/65 281/138/65 298/138/65
f 298/138/66 281/138/66 283/139/66 299/140/66
f 299/140/66 283/139/66 284/141/66 300/142/66
f 300/142/66 284/141/66 282/136/66 294/136/66
f 295/137/67 296/139/67 279/139/67 277/138/67
f 296/139/66 279/139/66 280/143/66 297/143/66
f 297/143/68 293/134/68 278/135/68 280/143/68
f 277/138/65 285/138/65 288/144/65 281/138/65
f 281/138/66 288/144/66 289/145/66 283/139/66
f 283/139/66 289/145/66 290/141/66 284/141/66
f 284/141/66 290/141/66 292/136/66 282/136/66
f 277/138/67 279/139/67 286/139/67 285/138/67
f 279/139/66 286/139/66 287/141/66 280/143/66
f 280/143/68 278/135/68 291/134/68 287/141/68
f 278/135/64 293/134/64 294/136/64 282/136/64
f 286/146/69 279/146/69 296/146/69 262/146/69 255/146/69 272/146/69
f 272/146/70 273/146/70 287/146/70 286/146/70
f 262/146/71 296/146/71 297/146/71 263/146/71
f 287/146/72 273/146/72 256/146/72 263/146/72 297/146/72 280/146/72
usemtl PaneColor.001
f 303/147/71 304/148/71 302/149/71 301/150/71
f 305/151/70 306/152/70 308/153/70 307/154/70
