# Blender 5.1.0
# www.blender.org
mtllib SM_EXTCornerFoundation.mtl
o Cube
v -0.211510 0.000000 -0.390933
v -0.211510 1.000000 -0.390933
v 0.409184 0.000000 -1.011627
v 0.409184 1.000000 -1.011627
v -0.211510 0.000000 0.998720
v -0.211510 1.000000 0.998720
v 0.409184 0.000000 0.998720
v 0.409184 1.000000 0.998720
v -1.500000 0.000000 -0.390933
v -1.500000 1.000000 -0.390933
v -1.500000 0.000000 -1.011627
v -1.500000 1.000000 -1.011627
v -0.211510 0.000000 -0.390933
v -0.211510 1.000000 -0.390933
v 0.409184 0.000000 -1.011627
v 0.409184 1.000000 -1.011627
vn 1.0000 -0.0000 -0.0000
vn -0.0000 -0.0000 1.0000
vn -1.0000 -0.0000 -0.0000
vn -0.0000 -1.0000 -0.0000
vn -0.0000 -0.0000 -1.0000
vn -0.0000 1.0000 -0.0000
vt 0.375000 0.250000
vt 0.625000 0.250000
vt 0.625000 0.500000
vt 0.375000 0.500000
vt 0.625000 0.750000
vt 0.375000 0.750000
vt 0.625000 1.000000
vt 0.375000 1.000000
vt 0.125000 0.500000
vt 0.125000 0.750000
vt 0.375000 0.000000
vt 0.625000 0.000000
vt 0.000000 0.000000
s 0
f 3/1/1 4/2/1 8/3/1 7/4/1
f 7/4/2 8/3/2 6/5/2 5/6/2
f 5/6/3 6/5/3 2/7/3 1/8/3
f 3/9/4 7/4/4 5/6/4 1/10/4
f 9/11/3 10/12/3 12/2/3 11/1/3
f 11/1/5 12/2/5 16/3/5 15/4/5
f 13/6/2 14/5/2 10/7/2 9/8/2
f 11/9/4 15/4/4 13/6/4 9/10/4
f 4/13/6 16/13/6 14/13/6 2/13/6
f 4/13/6 2/13/6 6/5/6 8/3/6
f 10/7/6 14/5/6 16/13/6 12/2/6
o Foundation_Trim
v 0.404538 0.678528 -1.012062
v 0.458005 0.970523 -1.065529
v 0.465875 0.895523 -1.073399
v 0.404538 0.997974 -1.012062
v 0.447254 0.997974 -1.054778
v 0.468756 0.793072 -1.076280
v 0.468756 0.678528 -1.076280
v -1.500000 0.678528 -1.076280
v -1.500000 0.793072 -1.076280
v -1.500000 0.997974 -1.054778
v -1.500000 0.997974 -1.012062
v -1.500000 0.895523 -1.073399
v -1.500000 0.970523 -1.065529
v -1.500000 0.678528 -1.012062
vn -0.0000 0.1044 -0.9945
vn -0.0000 0.0281 -0.9996
vn -0.0000 1.0000 -0.0000
vn 0.7071 -0.0000 0.7071
vn -0.0000 -0.0000 -1.0000
vn -0.0000 0.3647 -0.9311
vn -0.0000 -1.0000 -0.0000
vn -0.0000 -0.0000 1.0000
vn -1.0000 -0.0000 -0.0000
vt 0.345366 0.502977
vt 0.329786 0.541853
vt 0.535357 0.449083
vt 0.404448 0.450918
vt 0.324083 0.583706
vt 0.324083 0.750000
vt 0.675917 0.500000
vt 0.375000 0.800917
vt 0.675917 0.750000
vt 0.625000 0.449083
vt 0.625000 0.800917
s 0
f 28/14/7 29/15/7 18/15/7 19/14/7
f 25/16/8 28/17/8 19/17/8 22/16/8
f 26/18/9 27/19/9 20/19/9 21/18/9
f 23/20/10 22/16/10 19/14/10 18/15/10 21/18/10 20/21/10 17/22/10
f 24/23/11 25/16/11 22/16/11 23/23/11
f 29/15/12 26/18/12 21/18/12 18/15/12
f 30/22/13 24/20/13 23/20/13 17/22/13
f 27/21/14 30/24/14 17/24/14 20/21/14
f 30/22/15 27/19/15 26/18/15 29/15/15 28/17/15 25/16/15 24/20/15
o Foundation_Trim.001
v 0.405777 0.678528 0.998232
v 0.459244 0.970523 0.998232
v 0.467114 0.895523 0.998232
v 0.405777 0.997974 0.998232
v 0.448493 0.997974 0.998232
v 0.469995 0.793072 0.998232
v 0.469995 0.678528 0.998232
v 0.469995 0.678528 -1.076998
v 0.469995 0.793072 -1.076998
v 0.448493 0.997974 -1.055497
v 0.405777 0.997974 -1.012781
v 0.467114 0.895523 -1.074117
v 0.459244 0.970523 -1.066247
v 0.405777 0.678528 -1.012781
vn 0.9945 0.1044 -0.0000
vn 0.9996 0.0281 -0.0000
vn -0.0000 1.0000 -0.0000
vn -0.0000 -0.0000 1.0000
vn 1.0000 -0.0000 -0.0000
vn 0.9311 0.3647 -0.0000
vn -0.0000 -1.0000 -0.0000
vn -1.0000 -0.0000 -0.0000
vn -0.7071 -0.0000 -0.7071
vt 0.345366 0.502977
vt 0.329786 0.541853
vt 0.535357 0.449083
vt 0.404448 0.450918
vt 0.324083 0.583706
vt 0.324083 0.750000
vt 0.675917 0.500000
vt 0.375000 0.800917
vt 0.675917 0.750000
vt 0.625000 0.449083
vt 0.625000 0.800917
s 0
f 42/25/16 43/26/16 32/26/16 33/25/16
f 39/27/17 42/28/17 33/28/17 36/27/17
f 40/29/18 41/30/18 34/30/18 35/29/18
f 37/31/19 36/27/19 33/25/19 32/26/19 35/29/19 34/32/19 31/33/19
f 38/34/20 39/27/20 36/27/20 37/34/20
f 43/26/21 40/29/21 35/29/21 32/26/21
f 44/33/22 38/31/22 37/31/22 31/33/22
f 41/32/23 44/35/23 31/35/23 34/32/23
f 44/33/24 41/30/24 40/29/24 43/26/24 42/28/24 39/27/24 38/31/24
