# Blender 5.1.0
# www.blender.org
mtllib SM_EXTInnerWallCorner.mtl
o Wall
v 0.588412 0.856942 -0.408711
v 0.476398 0.856942 -0.520725
v -0.995616 0.856942 -0.520725
v -0.995616 0.856942 -0.408711
v -1.000000 0.000000 0.210347
v -1.000000 4.000000 0.210347
v -1.000000 0.000000 -0.410347
v -1.000000 4.000000 -0.410347
v 1.210347 0.000000 0.210347
v 1.210347 4.000000 0.210347
v 0.589653 0.000000 -0.410347
v 0.589653 4.000000 -0.410347
v 1.210347 0.000000 0.210347
v 1.210347 4.000000 0.210347
v 0.589653 0.000000 -0.410347
v 0.589653 4.000000 -0.410347
v 1.210347 0.000000 -2.000000
v 1.210347 4.000000 -2.000000
v 0.589653 0.000000 -2.000000
v 0.589653 4.000000 -2.000000
vn -0.0000 1.0000 -0.0000
vn -1.0000 -0.0000 -0.0000
vn -0.0000 -0.0000 -1.0000
vn 0.7071 -0.0000 -0.7071
vn -0.0000 -0.0000 1.0000
vn -0.0000 -1.0000 -0.0000
vn -0.7071 -0.0000 0.7071
vn 1.0000 -0.0000 -0.0000
vt 0.675917 0.750000
vt 0.675917 0.500000
vt 0.375000 0.000000
vt 0.625000 0.000000
vt 0.625000 0.250000
vt 0.375000 0.250000
vt 0.625000 0.500000
vt 0.375000 0.500000
vt 0.625000 0.750000
vt 0.375000 0.750000
vt 0.625000 1.000000
vt 0.375000 1.000000
vt 0.125000 0.500000
vt 0.125000 0.750000
vt 0.875000 0.500000
vt 0.875000 0.750000
s 0
usemtl Material
f 4/1/1 3/2/1 2/2/1 1/1/1
s 1
f 5/3/2 6/4/2 8/5/2 7/6/2
f 7/6/3 8/5/3 12/7/3 11/8/3
f 11/8/4 12/7/4 10/9/4 9/10/4
f 9/10/5 10/9/5 6/11/5 5/12/5
f 7/13/6 11/8/6 9/10/6 5/14/6
f 12/7/1 8/15/1 6/16/1 10/9/1
f 13/3/7 14/4/7 16/5/7 15/6/7
f 15/6/2 16/5/2 20/7/2 19/8/2
f 19/8/3 20/7/3 18/9/3 17/10/3
f 17/10/8 18/9/8 14/11/8 13/12/8
f 15/13/6 19/8/6 17/10/6 13/14/6
f 20/7/1 16/15/1 14/16/1 18/9/1
o Trimm
v 0.588412 0.856942 -0.408711
v 0.495150 0.990236 -0.501973
v 0.481423 0.955999 -0.515701
v 0.588412 1.002767 -0.408711
v 0.513903 1.002767 -0.483221
v 0.476397 0.909231 -0.520725
v 0.476398 0.856942 -0.520725
v -0.995616 0.856942 -0.520725
v -0.995616 0.909231 -0.520725
v -0.995616 1.002767 -0.483221
v -0.995616 1.002767 -0.408711
v -0.995616 0.955999 -0.515701
v -0.995616 0.990236 -0.501973
v -0.995616 0.856942 -0.408711
v 0.591442 0.856942 -2.005714
v 0.498180 0.990236 -2.005714
v 0.484452 0.955999 -2.005714
v 0.591442 1.002767 -2.005714
v 0.516933 1.002767 -2.005714
v 0.479428 0.909231 -2.005714
v 0.479428 0.856942 -2.005714
v 0.479428 0.856942 -0.519430
v 0.479428 0.909231 -0.519430
v 0.516933 1.002767 -0.481925
v 0.591442 1.002767 -0.407415
v 0.484453 0.955999 -0.514405
v 0.498180 0.990236 -0.500677
v 0.591442 0.856942 -0.407415
vn -0.0000 0.3722 -0.9282
vn -0.0000 0.1063 -0.9943
vn 0.0003 0.1068 -0.9943
vn -0.0000 0.1065 -0.9943
vn -0.0000 1.0000 -0.0000
vn -0.0000 -0.0000 -1.0000
vn -0.0000 0.8314 -0.5556
vn -1.0000 -0.0000 -0.0000
vn -0.9284 0.3715 -0.0000
vn -0.9283 0.3719 0.0006
vn -0.9285 0.3714 -0.0000
vn -0.9282 0.3721 0.0008
vn -0.9942 0.1078 -0.0000
vn -0.9943 0.1067 0.0011
vn -0.9942 0.1079 -0.0000
vn -0.9943 0.1068 -0.0011
vn 0.0007 1.0000 -0.0000
vn -0.0005 1.0000 0.0005
vn -0.0007 1.0000 -0.0000
vn -0.0000 1.0000 -0.0007
vn -1.0000 0.0005 -0.0000
vn -1.0000 -0.0000 -0.0005
vn -0.5552 0.8317 -0.0000
vn -0.5556 0.8314 -0.0000
vn -0.5553 0.8316 -0.0000
vn -0.5556 0.8315 -0.0005
vn -0.0007 -1.0000 -0.0000
vn -0.0005 -1.0000 0.0005
vn 0.0007 -1.0000 -0.0000
vn -0.0000 -1.0000 -0.0007
vn 1.0000 -0.0000 -0.0000
vn -0.0000 -0.0000 1.0000
vn -0.0005 -0.0000 -1.0000
vn -0.0000 0.0005 -1.0000
vn -0.0001 -0.0005 -1.0000
vn -0.0004 -0.0002 -1.0000
vn -0.0003 0.0004 -1.0000
vn 0.0004 0.0003 -1.0000
vt 0.345366 0.502977
vt 0.329786 0.541853
vt 0.535357 0.449083
vt 0.404448 0.450918
vt 0.324083 0.583706
vt 0.324083 0.750000
vt 0.625000 0.449083
vt 0.675917 0.750000
vt 0.675917 0.500000
vt 0.375000 0.800917
vt 0.625000 0.800917
s 0
usemtl Material
f 32/17/9 33/18/9 22/18/9 23/17/9
f 29/19/10 32/20/11 23/20/12 26/19/11
f 30/21/13 31/22/13 24/22/13 25/21/13
f 28/23/14 29/19/14 26/19/14 27/23/14
f 33/18/15 30/21/15 25/21/15 22/18/15
f 34/24/16 31/22/16 30/21/16 33/18/16 32/20/16 29/19/16 28/25/16
f 46/17/17 47/18/18 36/18/19 37/17/20
f 43/19/21 46/20/22 37/20/23 40/19/24
f 44/21/25 45/22/26 38/22/27 39/21/28
f 42/23/29 43/19/30 40/19/29 41/23/30
f 47/18/31 44/21/32 39/21/33 36/18/34
f 48/24/35 42/25/36 41/25/37 35/24/38
f 45/26/39 48/27/39 35/27/39 38/26/39
f 34/24/40 21/24/40 24/22/40 31/22/40
f 35/24/41 41/25/42 40/19/43 37/20/44 36/18/45 39/21/46 38/22/42
