# Blender 5.1.1
# www.blender.org
mtllib SM_EXTWindowWall.mtl
o Wall
v 0.600000 0.997738 0.210347
v 0.600000 3.000000 0.210347
v 0.600000 4.000000 0.210347
v 0.600000 0.000000 -0.410347
v 1.000000 0.000000 0.210347
v 1.000000 4.000000 0.210347
v 1.000000 0.000000 -0.410347
v 1.000000 4.000000 -0.410347
v 0.600000 0.997738 -0.410347
v 0.600000 3.000000 -0.410347
v 1.000000 3.000000 -0.410347
v 1.000000 3.000000 0.210347
v 0.600000 0.000000 0.210347
v 1.000000 0.997738 -0.410347
v 1.000000 0.997738 0.210347
v 0.600000 4.000000 -0.410347
v -0.600000 0.997738 0.210347
v -0.600000 3.000000 0.210347
v -0.600000 4.000000 0.210347
v -0.600000 0.000000 -0.410347
v -1.000000 0.000000 0.210347
v -1.000000 4.000000 0.210347
v -1.000000 0.000000 -0.410347
v -1.000000 4.000000 -0.410347
v -0.600000 0.997738 -0.410347
v -0.600000 3.000000 -0.410347
v -1.000000 3.000000 -0.410347
v -1.000000 3.000000 0.210347
v -0.600000 0.000000 0.210347
v -1.000000 0.997738 -0.410347
v -1.000000 0.997738 0.210347
v -0.600000 4.000000 -0.410347
vn -0.0000 -0.0000 -1.0000
vn 1.0000 -0.0000 -0.0000
vn -0.0000 -1.0000 -0.0000
vn -0.0000 1.0000 -0.0000
vn -0.0000 -0.0000 1.0000
vn -1.0000 -0.0000 -0.0000
vt 0.562500 0.437500
vt 0.625000 0.437500
vt 0.625000 0.500000
vt 0.562500 0.500000
vt 0.625000 0.750000
vt 0.562500 0.750000
vt 0.312500 0.500000
vt 0.375000 0.500000
vt 0.375000 0.750000
vt 0.312500 0.750000
vt 0.437359 0.437500
vt 0.437359 0.812500
vt 0.437359 0.500000
vt 0.437359 0.750000
vt 0.562500 0.812500
vt 0.625000 0.812500
vt 0.375000 0.437500
vt 0.687500 0.500000
vt 0.687500 0.750000
vt 0.375000 0.812500
s 0
usemtl Material.003
f 10/1/1 16/2/1 8/3/1 11/4/1
f 11/4/2 8/3/2 6/5/2 12/6/2
f 4/7/3 7/8/3 5/9/3 13/10/3
f 9/11/4 25/11/4 17/12/4 1/12/4
f 14/13/2 11/4/2 12/6/2 15/14/2
f 9/11/1 10/1/1 11/4/1 14/13/1
f 18/15/5 2/15/5 3/16/5 19/16/5
f 4/17/1 9/11/1 14/13/1 7/8/1
f 7/8/2 14/13/2 15/14/2 5/9/2
f 32/18/4 19/19/4 3/19/4 16/18/4
f 4/17/1 20/17/1 25/11/1 9/11/1
f 5/9/5 15/14/5 1/12/5 13/20/5
f 15/14/5 12/6/5 2/15/5 1/12/5
f 13/10/3 29/10/3 20/7/3 4/7/3
f 8/3/4 16/18/4 3/19/4 6/5/4
f 10/1/1 26/1/1 32/2/1 16/2/1
f 12/6/5 6/5/5 3/16/5 2/15/5
f 9/11/6 1/12/6 2/15/6 10/1/6
f 25/11/2 26/1/2 18/15/2 17/12/2
f 26/1/1 27/4/1 24/3/1 32/2/1
f 27/4/6 28/6/6 22/5/6 24/3/6
f 20/7/3 29/10/3 21/9/3 23/8/3
f 30/13/6 31/14/6 28/6/6 27/4/6
f 25/11/1 30/13/1 27/4/1 26/1/1
f 20/17/1 23/8/1 30/13/1 25/11/1
f 23/8/6 21/9/6 31/14/6 30/13/6
f 21/9/5 29/20/5 17/12/5 31/14/5
f 31/14/5 17/12/5 18/15/5 28/6/5
f 24/3/4 22/5/4 19/19/4 32/18/4
f 28/6/5 18/15/5 19/16/5 22/5/5
f 10/1/3 2/15/3 18/15/3 26/1/3
f 29/20/5 13/20/5 1/12/5 17/12/5
o InnerWindowFrame
v -0.508000 2.908000 -0.443745
v -0.508000 1.089738 -0.443745
v -0.508000 2.908000 0.210347
v -0.508000 1.089738 0.210347
v 0.508000 2.908000 -0.443745
v 0.508000 1.089738 -0.443745
v 0.508000 2.908000 0.210347
v 0.508000 1.089738 0.210347
v -0.468710 2.868678 -0.231802
v -0.467882 1.131744 -0.229150
v -0.467039 2.865062 -0.046704
v -0.467882 1.131744 -0.044100
v 0.466928 2.868678 -0.231802
v 0.466100 1.131744 -0.229150
v 0.465257 2.865062 -0.046704
v 0.466100 1.131744 -0.044100
v 0.466100 1.131744 -0.090363
v 0.466100 1.131744 -0.182888
v 0.466100 2.865571 -0.092990
v 0.466100 2.868214 -0.185515
v -0.467882 2.865571 -0.092990
v -0.467882 2.868214 -0.185515
v -0.467882 1.131744 -0.090363
v -0.467882 1.131744 -0.182888
v -0.600000 3.000000 -0.443745
v -0.600000 0.997738 -0.443745
v -0.600000 3.000000 0.210347
v -0.600000 0.997738 0.210347
v 0.600000 3.000000 -0.443745
v 0.600000 0.997738 -0.443745
v 0.600000 3.000000 0.210347
v 0.600000 0.997738 0.210347
v -0.559882 2.961498 -0.229150
v -0.559882 1.039744 -0.229150
v -0.559882 2.956212 -0.044100
v -0.559882 1.039744 -0.044100
v 0.558100 2.961498 -0.229150
v 0.558100 1.039744 -0.229150
v 0.558100 2.956212 -0.044100
v 0.558100 1.039744 -0.044100
v 0.558100 1.039744 -0.090363
v 0.558100 1.039744 -0.182888
v 0.558100 2.957533 -0.090363
v 0.558100 2.960177 -0.182888
v -0.559882 2.957533 -0.090363
v -0.559882 2.960177 -0.182888
v -0.559882 1.039744 -0.090363
v -0.559882 1.039744 -0.182888
vn -1.0000 -0.0000 -0.0000
vn -0.0000 -1.0000 -0.0000
vn 1.0000 -0.0000 -0.0000
vn -0.0000 1.0000 -0.0000
vn -1.0000 -0.0003 -0.0091
vn -0.0000 -0.9999 -0.0110
vn 1.0000 -0.0003 -0.0091
vn 1.0000 0.0002 -0.0089
vn -0.0000 -0.9996 -0.0286
vn -0.0000 -0.9999 -0.0100
vn -1.0000 0.0002 -0.0089
vn -0.0000 0.9996 0.0286
vn -0.0000 -0.0000 -1.0000
vn -0.0000 -0.0000 1.0000
vn -0.0000 0.0286 -0.9996
vn -0.0141 0.0007 0.9999
vn -0.0145 -0.0007 -0.9999
vn 0.0141 0.0007 0.9999
vn 0.0145 -0.0007 -0.9999
vn -0.0000 -0.0286 0.9996
vt 0.437359 0.437500
vt 0.437359 0.812500
vt 0.562500 0.812500
vt 0.562500 0.437500
vt 0.437359 0.718750
vt 0.562500 0.718750
vt 0.562500 0.718750
vt 0.437359 0.531250
vt 0.562500 0.531250
s 0
usemtl Material
f 38/21/7 40/22/7 39/23/7 37/24/7
f 37/24/8 39/23/8 35/23/8 33/24/8
f 34/21/9 33/24/9 35/23/9 36/22/9
f 38/21/10 34/21/10 36/22/10 40/22/10
f 49/25/11 48/22/11 47/23/11 51/26/11
f 51/26/12 47/23/12 43/23/12 53/27/12
f 55/25/13 53/27/13 43/23/13 44/22/13
f 49/25/10 55/25/10 44/22/10 48/22/10
f 46/21/10 42/21/10 56/28/10 50/28/10
f 56/28/9 54/29/9 53/27/9 55/25/9
f 42/21/14 41/24/14 54/29/14 56/28/14
f 52/29/15 51/26/15 53/27/15 54/29/15
f 45/24/16 52/29/16 54/29/16 41/24/16
f 50/28/7 49/25/7 51/26/7 52/29/7
f 46/21/17 50/28/17 52/29/17 45/24/17
f 50/28/10 56/28/10 55/25/10 49/25/10
f 62/21/9 61/24/9 63/23/9 64/22/9
f 61/24/10 57/24/10 59/23/10 63/23/10
f 58/21/7 60/22/7 59/23/7 57/24/7
f 62/21/8 64/22/8 60/22/8 58/21/8
f 73/25/9 75/26/9 71/23/9 72/22/9
f 75/26/18 77/27/18 67/23/18 71/23/18
f 79/25/7 68/22/7 67/23/7 77/27/7
f 73/25/8 72/22/8 68/22/8 79/25/8
f 70/21/8 74/28/8 80/28/8 66/21/8
f 80/28/7 79/25/7 77/27/7 78/29/7
f 66/21/7 80/28/7 78/29/7 65/24/7
f 76/29/18 78/29/18 77/27/18 75/26/18
f 69/24/18 65/24/18 78/29/18 76/29/18
f 74/28/9 76/29/9 75/26/9 73/25/9
f 70/21/9 69/24/9 76/29/9 74/28/9
f 74/28/8 73/25/8 79/25/8 80/28/8
f 37/24/19 33/24/19 57/24/19 61/24/19
f 39/23/20 40/22/20 64/22/20 63/23/20
f 33/24/19 34/21/19 58/21/19 57/24/19
f 36/22/20 35/23/20 59/23/20 60/22/20
f 34/21/19 38/21/19 62/21/19 58/21/19
f 38/21/19 37/24/19 61/24/19 62/21/19
f 40/22/20 36/22/20 60/22/20 64/22/20
f 35/23/20 39/23/20 63/23/20 59/23/20
f 45/24/21 41/24/21 65/24/21 69/24/21
f 47/23/22 48/22/22 72/22/22 71/23/22
f 41/24/23 42/21/23 66/21/23 65/24/23
f 44/22/24 43/23/24 67/23/24 68/22/24
f 42/21/19 46/21/19 70/21/19 66/21/19
f 46/21/25 45/24/25 69/24/25 70/21/25
f 48/22/20 44/22/20 68/22/20 72/22/20
f 43/23/26 47/23/26 71/23/26 67/23/26
o PlanterBox
v -0.677777 1.025697 -0.400885
v -0.677777 1.025697 -0.838412
v 0.000000 1.025697 -0.838412
v 0.000000 0.697655 -0.838412
v 0.000000 1.025697 -0.400885
v 0.000000 0.697655 -0.400885
v -0.579673 0.697655 -0.400885
v -0.677777 0.721396 -0.400885
v -0.609989 0.698817 -0.400885
v -0.637337 0.702189 -0.400885
v -0.659041 0.707441 -0.400885
v -0.672975 0.714059 -0.400885
v -0.677777 0.721396 -0.838412
v -0.579673 0.697655 -0.838412
v -0.672975 0.714059 -0.838412
v -0.659041 0.707441 -0.838412
v -0.637337 0.702189 -0.838412
v -0.609989 0.698817 -0.838412
v 0.677777 1.025697 -0.400885
v 0.677777 1.025697 -0.838412
v 0.579673 0.697655 -0.400885
v 0.677777 0.721396 -0.400885
v 0.609989 0.698817 -0.400885
v 0.637337 0.702189 -0.400885
v 0.659041 0.707441 -0.400885
v 0.672975 0.714059 -0.400885
v 0.677777 0.721396 -0.838412
v 0.579673 0.697655 -0.838412
v 0.672975 0.714059 -0.838412
v 0.659041 0.707441 -0.838412
v 0.637337 0.702189 -0.838412
v 0.609989 0.698817 -0.838412
v -0.589666 1.025697 -0.429324
v -0.589666 1.025697 -0.809973
v 0.000000 1.025697 -0.809973
v 0.000000 0.718978 -0.809973
v 0.000000 1.025697 -0.429324
v 0.000000 0.718978 -0.429324
v -0.572723 0.719024 -0.428130
v -0.589472 0.723078 -0.428130
v -0.582211 0.719505 -0.427323
v -0.584501 0.719788 -0.427323
v -0.586318 0.720227 -0.427323
v -0.587485 0.720782 -0.427323
v -0.589472 0.723078 -0.811168
v -0.572723 0.719024 -0.811168
v -0.587485 0.720782 -0.811974
v -0.586318 0.720227 -0.811974
v -0.584501 0.719788 -0.811974
v -0.582211 0.719505 -0.811974
v 0.589666 1.025697 -0.429324
v 0.589666 1.025697 -0.809973
v 0.572723 0.719024 -0.428130
v 0.589472 0.723078 -0.428130
v 0.582211 0.719505 -0.427323
v 0.584501 0.719788 -0.427323
v 0.586318 0.720227 -0.427323
v 0.587485 0.720782 -0.427323
v 0.589472 0.723078 -0.811168
v 0.572723 0.719024 -0.811168
v 0.587485 0.720782 -0.811974
v 0.586318 0.720227 -0.811974
v 0.584501 0.719788 -0.811974
v 0.582211 0.719505 -0.811974
vn -0.0383 -0.9993 -0.0000
vn -0.1224 -0.9925 -0.0000
vn -0.2352 -0.9719 -0.0000
vn -0.4290 -0.9033 -0.0000
vn -0.8367 -0.5476 -0.0000
vn -0.0000 -0.0000 1.0000
vn -1.0000 -0.0000 -0.0000
vn -0.0000 -1.0000 -0.0000
vn -0.0000 -0.0000 -1.0000
vn 0.0383 -0.9993 -0.0000
vn 0.1224 -0.9925 -0.0000
vn 0.2352 -0.9719 -0.0000
vn 0.4290 -0.9033 -0.0000
vn 0.8367 -0.5476 -0.0000
vn 1.0000 -0.0000 -0.0000
vn 0.0506 0.9987 -0.0000
vn 0.1224 0.9925 -0.0000
vn 0.2352 0.9719 -0.0000
vn 0.4290 0.9033 -0.0000
vn 0.7561 0.6544 -0.0000
vn -0.0010 -0.0021 -1.0000
vn 1.0000 0.0006 -0.0000
vn 0.0001 1.0000 -0.0000
vn -0.0010 -0.0021 1.0000
vn -0.0506 0.9987 -0.0000
vn -0.1224 0.9925 -0.0000
vn -0.2352 0.9719 -0.0000
vn -0.4290 0.9033 -0.0000
vn -0.7561 0.6544 -0.0000
vn 0.0010 -0.0021 -1.0000
vn -1.0000 0.0006 -0.0000
vn -0.0001 1.0000 -0.0000
vn 0.0010 -0.0021 1.0000
vn -0.0000 1.0000 -0.0000
vt 0.856907 0.750000
vt 0.856907 0.500000
vt 0.862498 0.500000
vt 0.862498 0.750000
vt 0.867542 0.500000
vt 0.867542 0.750000
vt 0.875000 0.500000
vt 0.875000 0.750000
vt 0.625000 0.000000
vt 0.617866 0.253305
vt 0.612498 0.250812
vt 0.612498 0.000000
vt 0.606907 0.250000
vt 0.606907 0.000000
vt 0.375000 0.875000
vt 0.625000 0.875000
vt 0.625000 0.981907
vt 0.624115 0.987498
vt 0.621545 0.992542
vt 0.617542 0.996545
vt 0.612498 0.999114
vt 0.606907 1.000000
vt 0.375000 1.000000
vt 0.375000 0.000000
vt 0.375000 0.250000
vt 0.750000 0.500000
vt 0.750000 0.750000
vt 0.621545 0.257458
vt 0.624115 0.262502
vt 0.625000 0.268093
vt 0.625000 0.375000
vt 0.375000 0.375000
s 0
usemtl Material.001
f 87/30/27 89/33/27 98/32/27 94/31/27
f 89/33/28 90/35/28 97/34/28 98/32/28
f 90/35/29 91/37/29 96/36/29 97/34/29
f 91/38/30 92/41/30 95/40/30 96/39/30
f 92/41/31 88/43/31 93/42/31 95/40/31
f 85/44/32 81/52/32 88/51/32 92/50/32 91/49/32 90/48/32 89/47/32 87/46/32 86/45/32
f 81/53/33 82/54/33 93/42/33 88/43/33
f 84/55/34 86/56/34 87/30/34 94/31/34
f 82/54/35 83/61/35 84/60/35 94/59/35 98/58/35 97/57/35 96/39/35 95/40/35 93/42/35
f 101/30/36 108/31/36 112/32/36 103/33/36
f 103/33/37 112/32/37 111/34/37 104/35/37
f 104/35/38 111/34/38 110/36/38 105/37/38
f 105/38/39 110/39/39 109/40/39 106/41/39
f 106/41/40 109/40/40 107/42/40 102/43/40
f 85/44/32 86/45/32 101/46/32 103/47/32 104/48/32 105/49/32 106/50/32 102/51/32 99/52/32
f 99/53/41 102/43/41 107/42/41 100/54/41
f 84/55/34 108/31/34 101/30/34 86/56/34
f 100/54/35 107/42/35 109/40/35 110/39/35 111/57/35 112/58/35 108/59/35 84/60/35 83/61/35
f 119/30/42 126/31/42 130/32/42 121/33/42
f 121/33/43 130/32/43 129/34/43 122/35/43
f 122/35/44 129/34/44 128/36/44 123/37/44
f 123/38/45 128/39/45 127/40/45 124/41/45
f 124/41/46 127/40/46 125/42/46 120/43/46
f 117/44/47 118/45/47 119/46/47 121/47/47 122/48/47 123/49/47 124/50/47 120/51/47 113/52/47
f 113/53/48 120/43/48 125/42/48 114/54/48
f 116/55/49 126/31/49 119/30/49 118/56/49
f 114/54/50 125/42/50 127/40/50 128/39/50 129/57/50 130/58/50 126/59/50 116/60/50 115/61/50
f 133/30/51 135/33/51 144/32/51 140/31/51
f 135/33/52 136/35/52 143/34/52 144/32/52
f 136/35/53 137/37/53 142/36/53 143/34/53
f 137/38/54 138/41/54 141/40/54 142/39/54
f 138/41/55 134/43/55 139/42/55 141/40/55
f 117/44/56 131/52/56 134/51/56 138/50/56 137/49/56 136/48/56 135/47/56 133/46/56 118/45/56
f 131/53/57 132/54/57 139/42/57 134/43/57
f 116/55/58 118/56/58 133/30/58 140/31/58
f 132/54/59 115/61/59 116/60/59 140/59/59 144/58/59 143/57/59 142/39/59 141/40/59 139/42/59
f 81/53/60 113/53/60 114/54/60 82/54/60
f 82/54/60 114/54/60 115/61/60 83/61/60
f 85/44/60 117/44/60 113/52/60 81/52/60
f 100/54/60 132/54/60 131/53/60 99/53/60
f 83/61/60 115/61/60 132/54/60 100/54/60
f 99/52/60 131/52/60 117/44/60 85/44/60
o GlassPane
v 0.514069 1.042598 -0.183032
v 0.514069 2.927982 -0.183032
v 0.514069 1.042598 -0.144558
v 0.514069 2.927982 -0.144558
v -0.514069 1.042598 -0.183032
v -0.514069 2.927982 -0.183032
v -0.514069 1.042598 -0.144558
v -0.514069 2.927982 -0.144558
vn 1.0000 -0.0000 -0.0000
vn -0.0000 -0.0000 1.0000
vn -1.0000 -0.0000 -0.0000
vn -0.0000 -0.0000 -1.0000
vn -0.0000 -1.0000 -0.0000
vn -0.0000 1.0000 -0.0000
vt 0.000000 0.372040
vt 0.000000 0.000000
vt 0.333333 0.000000
vt 0.333333 0.372040
vt 0.666667 0.000000
vt 0.666667 0.372040
vt 0.000000 0.744080
vt 0.333333 0.744080
vt 0.666667 0.744080
vt 1.000000 0.000000
vt 1.000000 0.333333
vt 0.666667 0.333333
vt 0.666667 0.000000
vt 1.000000 0.333333
vt 1.000000 0.666667
vt 0.666667 0.666667
vt 0.666667 0.333333
s 0
usemtl Material.002
f 145/62/61 146/63/61 148/64/61 147/65/61
f 147/65/62 148/64/62 152/66/62 151/67/62
f 151/68/63 152/62/63 150/65/63 149/69/63
f 149/69/64 150/65/64 146/67/64 145/70/64
f 147/71/65 151/72/65 149/73/65 145/74/65
f 152/75/66 148/76/66 146/77/66 150/78/66
o Trim
v 1.003318 0.856942 -0.410556
v 1.003318 0.990236 -0.503818
v 1.003318 0.955999 -0.517546
v 1.003318 1.002767 -0.410556
v 1.003318 1.002767 -0.485065
v 1.003318 0.909231 -0.522570
v 1.003318 0.856942 -0.522570
v -0.995941 0.856942 -0.522570
v -0.995941 0.909231 -0.522570
v -0.995941 1.002767 -0.485065
v -0.995941 1.002767 -0.410556
v -0.995941 0.955999 -0.517546
v -0.995941 0.990236 -0.503818
v -0.995941 0.856942 -0.410556
v 0.679778 1.002767 -0.410556
v 0.679778 0.856942 -0.410556
v 0.679778 0.856942 -0.522570
v 0.679778 0.909231 -0.522570
v 0.679778 1.002767 -0.485065
v 0.679778 0.955999 -0.517546
v 0.679778 0.990236 -0.503818
v -0.678221 0.856942 -0.410556
v -0.678221 0.909231 -0.522570
v -0.678221 0.955999 -0.517546
v -0.678221 0.990236 -0.503818
v -0.678221 1.002767 -0.410556
v -0.678221 0.856942 -0.522570
v -0.678221 1.002767 -0.485065
vn -0.0000 0.3722 -0.9282
vn -0.0000 0.1068 -0.9943
vn -0.0000 1.0000 -0.0000
vn 1.0000 -0.0000 -0.0000
vn -0.0000 -0.0000 -1.0000
vn -0.0000 0.8314 -0.5556
vn -0.0000 -1.0000 -0.0000
vn -0.0000 -0.0000 1.0000
vn -1.0000 -0.0000 -0.0000
vt 0.345366 0.502977
vt 0.329786 0.541853
vt 0.329786 0.541853
vt 0.535357 0.449083
vt 0.404448 0.450918
vt 0.324083 0.583706
vt 0.324083 0.750000
vt 0.675917 0.500000
vt 0.375000 0.800917
vt 0.675917 0.750000
vt 0.625000 0.449083
vt 0.675917 0.750000
vt 0.625000 0.800917
vt 0.324083 0.583705
s 0
f 172/79/67 173/80/67 154/81/67 155/79/67
f 170/82/68 172/83/68 155/83/68 158/82/68
f 171/84/69 167/85/69 156/85/69 157/84/69
f 159/86/70 158/82/70 155/79/70 154/81/70 157/84/70 156/87/70 153/88/70
f 169/89/71 170/82/71 158/82/71 159/89/71
f 173/80/72 171/84/72 157/84/72 154/81/72
f 168/90/73 169/86/73 159/86/73 153/88/73
f 167/87/74 168/91/74 153/91/74 156/87/74
f 166/88/75 163/85/75 162/84/75 165/81/75 164/83/75 161/82/75 160/86/75
f 164/79/67 165/81/67 177/81/67 176/79/67
f 161/82/68 164/83/68 176/83/68 175/82/68
f 162/84/69 163/85/69 178/85/69 180/92/69
f 160/89/71 161/82/71 175/82/71 179/89/71
f 165/81/72 162/84/72 180/92/72 177/81/72
f 166/88/73 160/86/73 179/86/73 174/88/73
f 163/87/74 166/91/74 174/91/74 178/87/74
