# Blender 5.1.1
# www.blender.org
mtllib SM_EXTTrimmedFoundation.mtl
o Foundation
v -1.000000 0.000000 0.210347
v -1.000000 1.000000 0.210347
v -1.000000 0.000000 -0.510347
v -1.000000 1.000000 -0.510347
v 1.000000 0.000000 0.210347
v 1.000000 1.000000 0.210347
v 1.000000 0.000000 -0.510347
v 1.000000 1.000000 -0.510347
vn -1.0000 -0.0000 -0.0000
vn -0.0000 -0.0000 -1.0000
vn 1.0000 -0.0000 -0.0000
vn -0.0000 -0.0000 1.0000
vn -0.0000 -1.0000 -0.0000
vn -0.0000 1.0000 -0.0000
vt 0.375000 0.000000
vt 0.625000 0.000000
vt 0.625000 0.250000
vt 0.375000 0.250000
vt 0.625000 0.500000
vt 0.375000 0.500000
vt 0.625000 0.750000
vt 0.375000 0.750000
vt 0.625000 1.000000
vt 0.375000 1.000000
vt 0.125000 0.500000
vt 0.125000 0.750000
vt 0.875000 0.500000
vt 0.875000 0.750000
s 0
usemtl Material
f 1/1/1 2/2/1 4/3/1 3/4/1
f 3/4/2 4/3/2 8/5/2 7/6/2
f 7/6/3 8/5/3 6/7/3 5/8/3
f 5/8/4 6/7/4 2/9/4 1/10/4
f 3/11/5 7/6/5 5/8/5 1/12/5
f 8/5/6 4/13/6 2/14/6 6/7/6
o Foundation_Trim
v 1.003318 0.678528 -0.511050
v 1.003318 0.970523 -0.564517
v 1.003318 0.895523 -0.572387
v 1.003318 0.997974 -0.511050
v 1.003318 0.997974 -0.553766
v 1.003318 0.793072 -0.575268
v 1.003318 0.678528 -0.575268
v -0.995941 0.678528 -0.575268
v -0.995941 0.793072 -0.575268
v -0.995941 0.997974 -0.553766
v -0.995941 0.997974 -0.511050
v -0.995941 0.895523 -0.572387
v -0.995941 0.970523 -0.564517
v -0.995941 0.678528 -0.511050
vn -0.0000 0.1044 -0.9945
vn -0.0000 0.0281 -0.9996
vn -0.0000 1.0000 -0.0000
vn 1.0000 -0.0000 -0.0000
vn -0.0000 -0.0000 -1.0000
vn -0.0000 0.3647 -0.9311
vn -0.0000 -1.0000 -0.0000
vn -0.0000 -0.0000 1.0000
vn -1.0000 -0.0000 -0.0000
vt 0.345366 0.502977
vt 0.329786 0.541853
vt 0.535357 0.449083
vt 0.404448 0.450918
vt 0.324083 0.583706
vt 0.324083 0.750000
vt 0.675917 0.500000
vt 0.375000 0.800917
vt 0.675917 0.750000
vt 0.625000 0.449083
vt 0.625000 0.800917
s 0
f 20/15/7 21/16/7 10/16/7 11/15/7
f 17/17/8 20/18/8 11/18/8 14/17/8
f 18/19/9 19/20/9 12/20/9 13/19/9
f 15/21/10 14/17/10 11/15/10 10/16/10 13/19/10 12/22/10 9/23/10
f 16/24/11 17/17/11 14/17/11 15/24/11
f 21/16/12 18/19/12 13/19/12 10/16/12
f 22/23/13 16/21/13 15/21/13 9/23/13
f 19/22/14 22/25/14 9/25/14 12/22/14
f 22/23/15 19/20/15 18/19/15 21/16/15 20/18/15 17/17/15 16/21/15
