# Blender 5.1.1
# www.blender.org
mtllib SM_EXTInnerFoundationCorner.mtl
o Cube
v -1.000000 0.000000 0.200000
v -1.000000 1.000000 0.200000
v -1.000000 0.000000 -0.500000
v -1.000000 1.000000 -0.500000
v 1.200000 0.000000 0.200000
v 1.200000 1.000000 0.200000
v 0.500000 0.000000 -0.500000
v 0.500000 1.000000 -0.500000
v 0.500000 0.000000 -0.496841
v 0.500000 1.000000 -0.496841
v 0.500000 0.000000 -1.996841
v 0.500000 1.000000 -1.996841
v 1.200000 0.000000 0.203159
v 1.200000 1.000000 0.203159
v 1.200000 0.000000 -1.996841
v 1.200000 1.000000 -1.996841
vn -1.0000 -0.0000 -0.0000
vn -0.0000 -0.0000 -1.0000
vn 0.7071 -0.0000 -0.7071
vn -0.0000 -0.0000 1.0000
vn -0.0000 -1.0000 -0.0000
vn -0.0000 1.0000 -0.0000
vn 1.0000 -0.0000 -0.0000
vn -0.7071 -0.0000 0.7071
vt 0.375000 0.000000
vt 0.625000 0.000000
vt 0.625000 0.250000
vt 0.375000 0.250000
vt 0.625000 0.500000
vt 0.375000 0.500000
vt 0.625000 0.750000
vt 0.375000 0.750000
vt 0.625000 1.000000
vt 0.375000 1.000000
vt 0.125000 0.500000
vt 0.125000 0.750000
vt 0.875000 0.500000
vt 0.875000 0.750000
s 0
f 1/1/1 2/2/1 4/3/1 3/4/1
f 3/4/2 4/3/2 8/5/2 7/6/2
f 7/6/3 8/5/3 6/7/3 5/8/3
f 5/8/4 6/7/4 2/9/4 1/10/4
f 3/11/5 7/6/5 5/8/5 1/12/5
f 8/5/6 4/13/6 2/14/6 6/7/6
f 9/1/1 10/2/1 12/3/1 11/4/1
f 11/4/2 12/3/2 16/5/2 15/6/2
f 15/6/7 16/5/7 14/7/7 13/8/7
f 13/8/8 14/7/8 10/9/8 9/10/8
f 11/11/5 15/6/5 13/8/5 9/12/5
f 16/5/6 12/13/6 10/14/6 14/7/6
o Foundation_Trim
v 0.503506 0.682202 -0.499065
v 0.450040 0.974197 -0.552532
v 0.442170 0.899198 -0.560402
v 0.503506 1.001649 -0.499065
v 0.460790 1.001649 -0.541781
v 0.439289 0.796746 -0.563282
v 0.439289 0.682202 -0.563282
v -0.997066 0.682202 -0.563282
v -0.997066 0.796746 -0.563282
v -0.997066 1.001649 -0.541781
v -0.997066 1.001649 -0.499065
v -0.997066 0.899198 -0.560402
v -0.997066 0.974197 -0.552532
v -0.997066 0.682202 -0.499065
v 0.504611 0.679762 -1.995818
v 0.451144 0.971756 -1.995818
v 0.443274 0.896757 -1.995818
v 0.504611 0.999208 -1.995818
v 0.461895 0.999208 -1.995818
v 0.440393 0.794306 -1.995818
v 0.440393 0.679762 -1.995818
v 0.440393 0.679762 -0.560403
v 0.440393 0.794306 -0.560403
v 0.461895 0.999208 -0.538901
v 0.504611 0.999208 -0.496185
v 0.443274 0.896757 -0.557522
v 0.451144 0.971756 -0.549652
v 0.504611 0.679762 -0.496185
vn -0.0000 0.1044 -0.9945
vn -0.0000 0.0281 -0.9996
vn -0.0000 1.0000 -0.0000
vn 0.7071 -0.0000 -0.7071
vn -0.0000 -0.0000 -1.0000
vn -0.0000 0.3647 -0.9311
vn -0.0000 -1.0000 -0.0000
vn -0.0000 -0.0000 1.0000
vn -1.0000 -0.0000 -0.0000
vn -0.9945 0.1044 -0.0000
vn -0.9996 0.0281 -0.0000
vn -0.9311 0.3647 -0.0000
vn 1.0000 -0.0000 -0.0000
vn -0.7071 -0.0000 0.7071
vt 0.345366 0.502977
vt 0.329786 0.541853
vt 0.535357 0.449083
vt 0.404448 0.450918
vt 0.324083 0.583706
vt 0.324083 0.750000
vt 0.675917 0.500000
vt 0.375000 0.800917
vt 0.675917 0.750000
vt 0.625000 0.449083
vt 0.625000 0.800917
s 0
f 28/15/9 29/16/9 18/16/9 19/15/9
f 25/17/10 28/18/10 19/18/10 22/17/10
f 26/19/11 27/20/11 20/20/11 21/19/11
f 23/21/12 22/17/12 19/15/12 18/16/12 21/19/12 20/22/12 17/23/12
f 24/24/13 25/17/13 22/17/13 23/24/13
f 29/16/14 26/19/14 21/19/14 18/16/14
f 30/23/15 24/21/15 23/21/15 17/23/15
f 27/22/16 30/25/16 17/25/16 20/22/16
f 30/23/17 27/20/17 26/19/17 29/16/17 28/18/17 25/17/17 24/21/17
f 42/15/18 43/16/18 32/16/18 33/15/18
f 39/17/19 42/18/19 33/18/19 36/17/19
f 40/19/11 41/20/11 34/20/11 35/19/11
f 37/21/13 36/17/13 33/15/13 32/16/13 35/19/13 34/22/13 31/23/13
f 38/24/17 39/17/17 36/17/17 37/24/17
f 43/16/20 40/19/20 35/19/20 32/16/20
f 44/23/15 38/21/15 37/21/15 31/23/15
f 41/22/21 44/25/21 31/25/21 34/22/21
f 44/23/22 41/20/22 40/19/22 43/16/22 42/18/22 39/17/22 38/21/22
