# Blender 5.1.1
# www.blender.org
mtllib SM_EXTWindowFoundation.mtl
o Wall
v 0.600000 0.001359 0.210347
v 0.600000 0.698978 0.210347
v 0.600000 1.000000 0.210347
v 0.600000 0.001359 -0.510347
v 1.000000 0.001359 0.210347
v 1.000000 1.000000 0.210347
v 1.000000 0.001359 -0.510347
v 1.000000 1.000000 -0.510347
v 0.600000 0.698978 -0.510347
v 1.000000 0.698978 -0.510347
v 1.000000 0.698978 0.210347
v 0.600000 1.000000 -0.510347
v -0.600000 0.698978 0.210347
v -0.600000 1.000000 0.210347
v -0.600000 0.001359 -0.510347
v -1.000000 0.001359 0.210347
v -1.000000 1.000000 0.210347
v -1.000000 1.000000 -0.510347
v -0.600000 0.698978 -0.510347
v -1.000000 0.698978 -0.510347
v -1.000000 0.698978 0.210347
v -0.600000 0.001359 0.210347
v -1.000000 0.001359 -0.510347
v -0.600000 1.000000 -0.510347
vn -0.0000 -0.0000 -1.0000
vn 1.0000 -0.0000 -0.0000
vn -0.0000 -1.0000 -0.0000
vn -0.0000 1.0000 -0.0000
vn -0.0000 -0.0000 1.0000
vn -1.0000 -0.0000 -0.0000
vt 0.562500 0.437500
vt 0.625000 0.437500
vt 0.625000 0.500000
vt 0.562500 0.500000
vt 0.625000 0.750000
vt 0.562500 0.750000
vt 0.312500 0.500000
vt 0.375000 0.500000
vt 0.375000 0.750000
vt 0.312500 0.750000
vt 0.437359 0.437500
vt 0.437359 0.812500
vt 0.437359 0.500000
vt 0.437359 0.750000
vt 0.562500 0.812500
vt 0.625000 0.812500
vt 0.687500 0.500000
vt 0.687500 0.750000
s 0
f 9/1/1 12/2/1 8/3/1 10/4/1
f 10/4/2 8/3/2 6/5/2 11/6/2
f 4/7/3 7/8/3 5/9/3 1/10/3
f 4/11/4 15/11/4 22/12/4 1/12/4
f 7/13/2 10/4/2 11/6/2 5/14/2
f 4/11/1 9/1/1 10/4/1 7/13/1
f 13/15/5 2/15/5 3/16/5 14/16/5
f 24/17/4 14/18/4 3/18/4 12/17/4
f 5/14/5 11/6/5 2/15/5 1/12/5
f 8/3/4 12/17/4 3/18/4 6/5/4
f 9/1/1 19/1/1 24/2/1 12/2/1
f 11/6/5 6/5/5 3/16/5 2/15/5
f 4/11/6 1/12/6 2/15/6 9/1/6
f 15/11/2 19/1/2 13/15/2 22/12/2
f 19/1/1 20/4/1 18/3/1 24/2/1
f 20/4/6 21/6/6 17/5/6 18/3/6
f 15/7/3 22/10/3 16/9/3 23/8/3
f 23/13/6 16/14/6 21/6/6 20/4/6
f 15/11/1 23/13/1 20/4/1 19/1/1
f 16/14/5 22/12/5 13/15/5 21/6/5
f 18/3/4 17/5/4 14/18/4 24/17/4
f 21/6/5 13/15/5 14/16/5 17/5/5
f 9/1/3 2/15/3 13/15/3 19/1/3
o InnerWindowFrame
v -0.508000 0.608000 -0.443745
v -0.508000 0.089738 -0.443745
v -0.508000 0.608000 0.210347
v -0.508000 0.089738 0.210347
v 0.508000 0.608000 -0.443745
v 0.508000 0.089738 -0.443745
v 0.508000 0.608000 0.210347
v 0.508000 0.089738 0.210347
v -0.468710 0.568678 -0.231802
v -0.467882 0.131744 -0.229150
v -0.467039 0.565062 -0.046704
v -0.467882 0.131744 -0.044100
v 0.466928 0.568678 -0.231802
v 0.466100 0.131744 -0.229150
v 0.465257 0.565062 -0.046704
v 0.466100 0.131744 -0.044100
v 0.466100 0.131744 -0.090363
v 0.466100 0.131744 -0.182888
v 0.466100 0.565571 -0.092990
v 0.466100 0.568214 -0.185515
v -0.467882 0.565571 -0.092990
v -0.467882 0.568214 -0.185515
v -0.467882 0.131744 -0.090363
v -0.467882 0.131744 -0.182888
v -0.600000 0.700000 -0.443745
v -0.600000 -0.002262 -0.443745
v -0.600000 0.700000 0.210347
v -0.600000 -0.002262 0.210347
v 0.600000 0.700000 -0.443745
v 0.600000 -0.002262 -0.443745
v 0.600000 0.700000 0.210347
v 0.600000 -0.002262 0.210347
v -0.559882 0.661498 -0.229150
v -0.559882 0.039744 -0.229150
v -0.559882 0.656212 -0.044100
v -0.559882 0.039744 -0.044100
v 0.558100 0.661498 -0.229150
v 0.558100 0.039744 -0.229150
v 0.558100 0.656212 -0.044100
v 0.558100 0.039744 -0.044100
v 0.558100 0.039744 -0.090363
v 0.558100 0.039744 -0.182888
v 0.558100 0.657533 -0.090363
v 0.558100 0.660177 -0.182888
v -0.559882 0.657533 -0.090363
v -0.559882 0.660177 -0.182888
v -0.559882 0.039744 -0.090363
v -0.559882 0.039744 -0.182888
vn -1.0000 -0.0000 -0.0000
vn -0.0000 -1.0000 -0.0000
vn 1.0000 -0.0000 -0.0000
vn -0.0000 1.0000 -0.0000
vn -1.0000 -0.0010 -0.0091
vn -0.0000 -0.9999 -0.0110
vn 1.0000 -0.0010 -0.0091
vn 1.0000 0.0009 -0.0089
vn -0.0000 -0.9996 -0.0286
vn -0.0000 -0.9999 -0.0100
vn -1.0000 0.0009 -0.0089
vn -0.0000 0.9996 0.0286
vn -0.0000 -0.0000 -1.0000
vn -0.0000 -0.0000 1.0000
vn -0.0000 0.0286 -0.9996
vn -0.0141 0.0025 0.9999
vn -0.0145 -0.0025 -0.9999
vn 0.0141 0.0025 0.9999
vn 0.0145 -0.0025 -0.9999
vn -0.0000 -0.0286 0.9996
vt 0.437359 0.437500
vt 0.437359 0.812500
vt 0.562500 0.812500
vt 0.562500 0.437500
vt 0.437359 0.718750
vt 0.562500 0.718750
vt 0.562500 0.718750
vt 0.437359 0.531250
vt 0.562500 0.531250
s 0
usemtl Material
f 30/19/7 32/20/7 31/21/7 29/22/7
f 29/22/8 31/21/8 27/21/8 25/22/8
f 26/19/9 25/22/9 27/21/9 28/20/9
f 30/19/10 26/19/10 28/20/10 32/20/10
f 41/23/11 40/20/11 39/21/11 43/24/11
f 43/24/12 39/21/12 35/21/12 45/25/12
f 47/23/13 45/25/13 35/21/13 36/20/13
f 41/23/10 47/23/10 36/20/10 40/20/10
f 38/19/10 34/19/10 48/26/10 42/26/10
f 48/26/9 46/27/9 45/25/9 47/23/9
f 34/19/14 33/22/14 46/27/14 48/26/14
f 44/27/15 43/24/15 45/25/15 46/27/15
f 37/22/16 44/27/16 46/27/16 33/22/16
f 42/26/7 41/23/7 43/24/7 44/27/7
f 38/19/17 42/26/17 44/27/17 37/22/17
f 42/26/10 48/26/10 47/23/10 41/23/10
f 54/19/9 53/22/9 55/21/9 56/20/9
f 53/22/10 49/22/10 51/21/10 55/21/10
f 50/19/7 52/20/7 51/21/7 49/22/7
f 54/19/8 56/20/8 52/20/8 50/19/8
f 65/23/9 67/24/9 63/21/9 64/20/9
f 67/24/18 69/25/18 59/21/18 63/21/18
f 71/23/7 60/20/7 59/21/7 69/25/7
f 65/23/8 64/20/8 60/20/8 71/23/8
f 62/19/8 66/26/8 72/26/8 58/19/8
f 72/26/7 71/23/7 69/25/7 70/27/7
f 58/19/7 72/26/7 70/27/7 57/22/7
f 68/27/18 70/27/18 69/25/18 67/24/18
f 61/22/18 57/22/18 70/27/18 68/27/18
f 66/26/9 68/27/9 67/24/9 65/23/9
f 62/19/9 61/22/9 68/27/9 66/26/9
f 66/26/8 65/23/8 71/23/8 72/26/8
f 29/22/19 25/22/19 49/22/19 53/22/19
f 31/21/20 32/20/20 56/20/20 55/21/20
f 25/22/19 26/19/19 50/19/19 49/22/19
f 28/20/20 27/21/20 51/21/20 52/20/20
f 26/19/19 30/19/19 54/19/19 50/19/19
f 30/19/19 29/22/19 53/22/19 54/19/19
f 32/20/20 28/20/20 52/20/20 56/20/20
f 27/21/20 31/21/20 55/21/20 51/21/20
f 37/22/21 33/22/21 57/22/21 61/22/21
f 39/21/22 40/20/22 64/20/22 63/21/22
f 33/22/23 34/19/23 58/19/23 57/22/23
f 36/20/24 35/21/24 59/21/24 60/20/24
f 34/19/19 38/19/19 62/19/19 58/19/19
f 38/19/25 37/22/25 61/22/25 62/19/25
f 40/20/20 36/20/20 60/20/20 64/20/20
f 35/21/26 39/21/26 63/21/26 59/21/26
o GlassPane
v -0.514069 0.042598 -0.144558
v -0.514069 0.627982 -0.144558
v -0.514069 0.042598 -0.183032
v -0.514069 0.627982 -0.183032
v 0.514069 0.042598 -0.144558
v 0.514069 0.627982 -0.144558
v 0.514069 0.042598 -0.183032
v 0.514069 0.627982 -0.183032
vn -1.0000 -0.0000 -0.0000
vn -0.0000 -0.0000 -1.0000
vn 1.0000 -0.0000 -0.0000
vn -0.0000 -0.0000 1.0000
vn -0.0000 -1.0000 -0.0000
vn -0.0000 1.0000 -0.0000
vt 0.375000 0.000000
vt 0.625000 0.000000
vt 0.625000 0.250000
vt 0.375000 0.250000
vt 0.625000 0.500000
vt 0.375000 0.500000
vt 0.625000 0.750000
vt 0.375000 0.750000
vt 0.625000 1.000000
vt 0.375000 1.000000
vt 0.125000 0.500000
vt 0.125000 0.750000
vt 0.875000 0.500000
vt 0.875000 0.750000
s 0
usemtl Material.002
f 73/28/27 74/29/27 76/30/27 75/31/27
f 75/31/28 76/30/28 80/32/28 79/33/28
f 79/33/29 80/32/29 78/34/29 77/35/29
f 77/35/30 78/34/30 74/36/30 73/37/30
f 75/38/31 79/33/31 77/35/31 73/39/31
f 80/32/32 76/40/32 74/41/32 78/34/32
o Foundation_Trim
v 1.003318 0.678528 -0.511050
v 1.003318 0.970523 -0.564517
v 1.003318 0.895523 -0.572387
v 1.003318 0.997974 -0.511050
v 1.003318 0.997974 -0.553766
v 1.003318 0.793072 -0.575268
v 1.003318 0.678528 -0.575268
v -0.995941 0.678528 -0.575268
v -0.995941 0.793072 -0.575268
v -0.995941 0.997974 -0.553766
v -0.995941 0.997974 -0.511050
v -0.995941 0.895523 -0.572387
v -0.995941 0.970523 -0.564517
v -0.995941 0.678528 -0.511050
vn -0.0000 0.1044 -0.9945
vn -0.0000 0.0281 -0.9996
vn -0.0000 1.0000 -0.0000
vn 1.0000 -0.0000 -0.0000
vn -0.0000 -0.0000 -1.0000
vn -0.0000 0.3647 -0.9311
vn -0.0000 -1.0000 -0.0000
vn -0.0000 -0.0000 1.0000
vn -1.0000 -0.0000 -0.0000
vt 0.345366 0.502977
vt 0.329786 0.541853
vt 0.535357 0.449083
vt 0.404448 0.450918
vt 0.324083 0.583706
vt 0.324083 0.750000
vt 0.675917 0.500000
vt 0.375000 0.800917
vt 0.675917 0.750000
vt 0.625000 0.449083
vt 0.625000 0.800917
s 0
f 92/42/33 93/43/33 82/43/33 83/42/33
f 89/44/34 92/45/34 83/45/34 86/44/34
f 90/46/35 91/47/35 84/47/35 85/46/35
f 87/48/36 86/44/36 83/42/36 82/43/36 85/46/36 84/49/36 81/50/36
f 88/51/37 89/44/37 86/44/37 87/51/37
f 93/43/38 90/46/38 85/46/38 82/43/38
f 94/50/39 88/48/39 87/48/39 81/50/39
f 91/49/40 94/52/40 81/52/40 84/49/40
f 94/50/41 91/47/41 90/46/41 93/43/41 92/45/41 89/44/41 88/48/41
