# Blender 5.1.1
# www.blender.org
mtllib SM_EXTWallCorner.mtl
o Wall
v -0.589653 0.000000 0.410347
v -0.589653 4.000000 0.410347
v -1.010347 0.000000 -0.010347
v -1.010347 4.000000 -0.010347
v 1.200000 0.000000 0.410347
v 1.200000 4.000000 0.410347
v 1.200000 0.000000 -0.010347
v 1.200000 4.000000 -0.010347
v -0.589653 0.000000 2.200000
v -0.589653 4.000000 2.200000
v -1.010347 0.000000 2.200000
v -1.010347 4.000000 2.200000
v -0.589653 0.000000 0.410347
v -0.589653 4.000000 0.410347
v -1.010347 0.000000 -0.010347
v -1.010347 4.000000 -0.010347
vn -0.7071 -0.0000 0.7071
vn -0.0000 -0.0000 -1.0000
vn 1.0000 -0.0000 -0.0000
vn -0.0000 -0.0000 1.0000
vn -0.0000 -1.0000 -0.0000
vn -0.0000 1.0000 -0.0000
vn -1.0000 -0.0000 -0.0000
vn 0.7071 -0.0000 -0.7071
vt 0.375000 0.000000
vt 0.625000 0.000000
vt 0.625000 0.250000
vt 0.375000 0.250000
vt 0.625000 0.500000
vt 0.375000 0.500000
vt 0.625000 0.750000
vt 0.375000 0.750000
vt 0.625000 1.000000
vt 0.375000 1.000000
vt 0.125000 0.500000
vt 0.125000 0.750000
vt 0.875000 0.500000
vt 0.875000 0.750000
s 0
f 1/1/1 2/2/1 4/3/1 3/4/1
f 3/4/2 4/3/2 8/5/2 7/6/2
f 7/6/3 8/5/3 6/7/3 5/8/3
f 5/8/4 6/7/4 2/9/4 1/10/4
f 3/11/5 7/6/5 5/8/5 1/12/5
f 8/5/6 4/13/6 2/14/6 6/7/6
f 9/1/4 10/2/4 12/3/4 11/4/4
f 11/4/7 12/3/7 16/5/7 15/6/7
f 15/6/8 16/5/8 14/7/8 13/8/8
f 13/8/3 14/7/3 10/9/3 9/10/3
f 11/11/5 15/6/5 13/8/5 9/12/5
f 16/5/6 12/13/6 10/14/6 14/7/6
o Trim1
v -1.008397 0.856942 -0.014965
v -1.101659 0.990236 -0.108227
v -1.115386 0.955999 -0.121955
v -1.008397 1.002767 -0.014965
v -1.082906 1.002767 -0.089474
v -1.120411 0.909231 -0.126979
v -1.120411 0.856942 -0.126979
v -1.120411 0.856942 1.913039
v -1.120411 0.909231 1.913039
v -1.082906 1.002767 1.913039
v -1.008397 1.002767 1.913039
v -1.115386 0.955999 1.913039
v -1.101659 0.990236 1.913039
v -1.008397 0.856942 1.913039
v -1.008397 1.002767 2.218186
v -1.082906 1.002767 2.218186
v -1.101659 0.990236 2.218186
v -1.115386 0.955999 2.218186
v -1.120411 0.856942 2.218186
v -1.008397 0.856942 2.218186
v -1.120411 0.909231 2.218186
v 1.226342 0.856942 -0.014405
v 1.226342 0.990236 -0.107666
v 1.226342 0.955999 -0.121394
v 1.226342 1.002767 -0.014405
v 1.226342 1.002767 -0.088914
v 1.226342 0.909231 -0.126419
v 1.226342 0.856942 -0.126419
v -0.772917 0.856942 -0.126419
v -0.772917 0.909231 -0.126419
v -0.772917 1.002767 -0.088914
v -0.772917 1.002767 -0.014405
v -0.772917 0.955999 -0.121394
v -0.772917 0.990236 -0.107666
v -0.772917 0.856942 -0.014405
v -1.006809 1.002767 -0.014405
v -1.081318 1.002767 -0.088914
v -1.100071 0.990236 -0.107666
v -1.113798 0.955999 -0.121394
v -1.118823 0.856942 -0.126419
v -1.006809 0.856942 -0.014405
v -1.118823 0.909231 -0.126419
vn -0.9282 0.3722 -0.0000
vn -0.9943 0.1068 -0.0000
vn -0.0000 1.0000 -0.0000
vn 0.7071 -0.0000 -0.7071
vn -1.0000 -0.0000 -0.0000
vn -0.5556 0.8314 -0.0000
vn -0.0000 -1.0000 -0.0000
vn 1.0000 -0.0000 -0.0000
vn -0.0000 -0.0000 1.0000
vn -0.0000 0.3722 -0.9282
vn -0.0000 0.1068 -0.9943
vn -0.0000 -0.0000 -1.0000
vn -0.0000 0.8314 -0.5556
vn -0.7071 -0.0000 0.7071
vt 0.345366 0.502977
vt 0.329786 0.541853
vt 0.535357 0.449083
vt 0.404448 0.450918
vt 0.324083 0.583706
vt 0.324083 0.750000
vt 0.675917 0.500000
vt 0.375000 0.800917
vt 0.675917 0.750000
vt 0.625000 0.449083
vt 0.625000 0.800917
s 0
f 28/15/9 29/16/9 18/16/9 19/15/9
f 25/17/10 28/18/10 19/18/10 22/17/10
f 26/19/11 27/20/11 20/20/11 21/19/11
f 23/21/12 22/17/12 19/15/12 18/16/12 21/19/12 20/22/12 17/23/12
f 24/24/13 25/17/13 22/17/13 23/24/13
f 29/16/14 26/19/14 21/19/14 18/16/14
f 30/23/15 24/21/15 23/21/15 17/23/15
f 27/22/16 30/25/16 17/25/16 20/22/16
f 36/23/17 31/20/17 32/19/17 33/16/17 34/18/17 37/17/17 35/21/17
f 27/22/16 31/22/16 36/25/16 30/25/16
f 29/16/14 33/16/14 32/19/14 26/19/14
f 25/17/10 37/17/10 34/18/10 28/18/10
f 24/24/13 35/24/13 37/17/13 25/17/13
f 30/23/15 36/23/15 35/21/15 24/21/15
f 28/15/9 34/15/9 33/16/9 29/16/9
f 26/19/11 32/19/11 31/20/11 27/20/11
f 49/15/18 50/16/18 39/16/18 40/15/18
f 46/17/19 49/18/19 40/18/19 43/17/19
f 47/19/11 48/20/11 41/20/11 42/19/11
f 44/21/16 43/17/16 40/15/16 39/16/16 42/19/16 41/22/16 38/23/16
f 45/24/20 46/17/20 43/17/20 44/24/20
f 50/16/21 47/19/21 42/19/21 39/16/21
f 51/23/15 45/21/15 44/21/15 38/23/15
f 48/22/17 51/25/17 38/25/17 41/22/17
f 57/23/22 52/20/22 53/19/22 54/16/22 55/18/22 58/17/22 56/21/22
f 48/22/17 52/22/17 57/25/17 51/25/17
f 50/16/21 54/16/21 53/19/21 47/19/21
f 46/17/19 58/17/19 55/18/19 49/18/19
f 45/24/20 56/24/20 58/17/20 46/17/20
f 51/23/15 57/23/15 56/21/15 45/21/15
f 49/15/18 55/15/18 54/16/18 50/16/18
f 47/19/11 53/19/11 52/20/11 48/20/11
