# Blender 5.1.0
# www.blender.org
mtllib singlewindow.mtl
o GlassPane
v -8.185932 2.042598 -0.183032
v -8.185932 3.927982 -0.183032
v -8.185932 2.042598 -0.144558
v -8.185932 3.927982 -0.144558
v -9.214069 2.042598 -0.183032
v -9.214069 3.927982 -0.183032
v -9.214069 2.042598 -0.144558
v -9.214069 3.927982 -0.144558
v -8.100000 1.997738 0.210347
v -8.100000 4.000000 0.210347
v -8.100000 5.000000 0.210347
v -8.100000 1.000000 -0.410347
v -7.700001 1.000000 0.210347
v -7.700001 5.000000 0.210347
v -7.700001 1.000000 -0.410347
v -7.700001 5.000000 -0.410347
v -8.100000 1.997738 -0.410347
v -8.100000 4.000000 -0.410347
v -7.700001 4.000000 -0.410347
v -7.700001 4.000000 0.210347
v -8.100000 1.000000 0.210347
v -7.700001 1.997738 -0.410347
v -7.700001 1.997738 0.210347
v -8.100000 5.000000 -0.410347
v -9.300001 1.997738 0.210347
v -9.300001 4.000000 0.210347
v -9.300001 5.000000 0.210347
v -9.300001 1.000000 -0.410347
v -9.700001 1.000000 0.210347
v -9.700001 5.000000 0.210347
v -9.700001 1.000000 -0.410347
v -9.700001 5.000000 -0.410347
v -9.300001 1.997738 -0.410347
v -9.300001 4.000000 -0.410347
v -9.700001 4.000000 -0.410347
v -9.700001 4.000000 0.210347
v -9.300001 1.000000 0.210347
v -9.700001 1.997738 -0.410347
v -9.700001 1.997738 0.210347
v -9.300001 5.000000 -0.410347
v -9.208001 3.908000 -0.443745
v -9.208001 2.089738 -0.443745
v -9.208001 3.908000 0.210347
v -9.208001 2.089738 0.210347
v -8.192000 3.908000 -0.443745
v -8.192000 2.089738 -0.443745
v -8.192000 3.908000 0.210347
v -8.192000 2.089738 0.210347
v -9.168711 3.868678 -0.231802
v -9.167883 2.131744 -0.229150
v -9.167040 3.865062 -0.046704
v -9.167883 2.131744 -0.044100
v -8.233072 3.868678 -0.231802
v -8.233900 2.131744 -0.229150
v -8.234743 3.865062 -0.046704
v -8.233900 2.131744 -0.044100
v -8.233900 2.131744 -0.090363
v -8.233900 2.131744 -0.182888
v -8.233900 3.865571 -0.092990
v -8.233900 3.868214 -0.185515
v -9.167883 3.865571 -0.092990
v -9.167883 3.868214 -0.185515
v -9.167883 2.131744 -0.090363
v -9.167883 2.131744 -0.182888
v -9.300001 4.000000 -0.443745
v -9.300001 1.997738 -0.443745
v -9.300001 4.000000 0.210347
v -9.300001 1.997738 0.210347
v -8.100000 4.000000 -0.443745
v -8.100000 1.997738 -0.443745
v -8.100000 4.000000 0.210347
v -8.100000 1.997738 0.210347
v -9.259883 3.961499 -0.229150
v -9.259883 2.039744 -0.229150
v -9.259883 3.956212 -0.044100
v -9.259883 2.039744 -0.044100
v -8.141900 3.961499 -0.229150
v -8.141900 2.039744 -0.229150
v -8.141900 3.956212 -0.044100
v -8.141900 2.039744 -0.044100
v -8.141900 2.039744 -0.090363
v -8.141900 2.039744 -0.182888
v -8.141900 3.957533 -0.090363
v -8.141900 3.960177 -0.182888
v -9.259883 3.957533 -0.090363
v -9.259883 3.960177 -0.182888
v -9.259883 2.039744 -0.090363
v -9.259883 2.039744 -0.182888
v -9.377778 2.025697 -0.400885
v -9.377778 2.025697 -0.838412
v -8.700001 2.025697 -0.838412
v -8.700001 1.697655 -0.838412
v -8.700001 2.025697 -0.400885
v -8.700001 1.697655 -0.400885
v -9.279674 1.697655 -0.400885
v -9.377778 1.721396 -0.400885
v -9.309990 1.698817 -0.400885
v -9.337337 1.702189 -0.400885
v -9.359041 1.707441 -0.400885
v -9.372976 1.714059 -0.400885
v -9.377778 1.721396 -0.838412
v -9.279674 1.697655 -0.838412
v -9.372976 1.714059 -0.838412
v -9.359041 1.707441 -0.838412
v -9.337337 1.702189 -0.838412
v -9.309990 1.698817 -0.838412
v -8.022223 2.025697 -0.400885
v -8.022223 2.025697 -0.838412
v -8.120328 1.697655 -0.400885
v -8.022223 1.721396 -0.400885
v -8.090012 1.698817 -0.400885
v -8.062664 1.702189 -0.400885
v -8.040960 1.707441 -0.400885
v -8.027025 1.714059 -0.400885
v -8.022223 1.721396 -0.838412
v -8.120328 1.697655 -0.838412
v -8.027025 1.714059 -0.838412
v -8.040960 1.707441 -0.838412
v -8.062664 1.702189 -0.838412
v -8.090012 1.698817 -0.838412
v -9.289667 2.025697 -0.429324
v -9.289667 2.025697 -0.809973
v -8.700001 2.025697 -0.809973
v -8.700001 1.718978 -0.809973
v -8.700001 2.025697 -0.429324
v -8.700001 1.718978 -0.429324
v -9.272724 1.719024 -0.428130
v -9.289474 1.723078 -0.428130
v -9.282212 1.719505 -0.427323
v -9.284502 1.719788 -0.427323
v -9.286320 1.720227 -0.427323
v -9.287486 1.720782 -0.427323
v -9.289474 1.723078 -0.811168
v -9.272724 1.719024 -0.811168
v -9.287486 1.720782 -0.811974
v -9.286319 1.720227 -0.811974
v -9.284502 1.719788 -0.811974
v -9.282212 1.719505 -0.811974
v -8.110334 2.025697 -0.429324
v -8.110334 2.025697 -0.809973
v -8.127277 1.719024 -0.428130
v -8.110529 1.723078 -0.428130
v -8.117789 1.719505 -0.427323
v -8.115499 1.719788 -0.427323
v -8.113683 1.720227 -0.427323
v -8.112515 1.720782 -0.427323
v -8.110528 1.723078 -0.811168
v -8.127277 1.719024 -0.811168
v -8.112515 1.720782 -0.811974
v -8.113683 1.720227 -0.811974
v -8.115499 1.719788 -0.811974
v -8.117789 1.719505 -0.811974
v -7.696682 1.856942 -0.410556
v -7.696682 1.990236 -0.503818
v -7.696682 1.955999 -0.517546
v -7.696682 2.002767 -0.410556
v -7.696682 2.002767 -0.485065
v -7.696682 1.909231 -0.522570
v -7.696682 1.856942 -0.522570
v -9.695942 1.856942 -0.522570
v -9.695942 1.909231 -0.522570
v -9.695942 2.002767 -0.485065
v -9.695942 2.002767 -0.410556
v -9.695942 1.955999 -0.517546
v -9.695942 1.990236 -0.503818
v -9.695942 1.856942 -0.410556
v -8.020223 2.002767 -0.410556
v -8.020223 1.856942 -0.410556
v -8.020223 1.856942 -0.522570
v -8.020223 1.909231 -0.522570
v -8.020223 2.002767 -0.485065
v -8.020223 1.955999 -0.517546
v -8.020223 1.990236 -0.503818
v -9.378222 1.856942 -0.410556
v -9.378222 1.909231 -0.522570
v -9.378222 1.955999 -0.517546
v -9.378222 1.990236 -0.503818
v -9.378222 2.002767 -0.410556
v -9.378222 1.856942 -0.522570
v -9.378222 2.002767 -0.485065
v -9.970301 4.006969 -0.421642
v -9.970301 4.006969 -0.572175
v -9.970301 2.035299 -0.421642
v -9.970301 2.035298 -0.572175
v -9.970301 2.035299 -0.509958
v -9.970301 4.006969 -0.509958
v -9.970301 4.006969 -0.483859
v -9.970301 2.035298 -0.483859
v -9.924585 4.006969 -0.421642
v -9.924585 2.035299 -0.421642
v -9.924585 4.006969 -0.509958
v -9.924585 2.035299 -0.509958
v -9.924585 4.006969 -0.572175
v -9.924585 2.035298 -0.572175
v -9.924585 4.006969 -0.483859
v -9.924585 2.035298 -0.483859
v -9.970301 3.948784 -0.421642
v -9.970301 3.948784 -0.572175
v -9.970301 3.948784 -0.509958
v -9.970301 3.948784 -0.483859
v -9.924585 3.948784 -0.483859
v -9.924585 3.948784 -0.509958
v -9.970301 2.090303 -0.572175
v -9.970301 2.090303 -0.483859
v -9.924585 2.090303 -0.483859
v -9.924585 2.090303 -0.509958
v -9.970301 2.090303 -0.421642
v -9.970301 2.090303 -0.509958
v -9.970301 3.948784 -0.462781
v -9.970301 4.006969 -0.462781
v -9.924585 4.006969 -0.462781
v -9.970301 2.090303 -0.531036
v -9.970301 2.035298 -0.531036
v -9.924585 2.035299 -0.462781
v -9.970301 2.035299 -0.462781
v -9.924585 4.006969 -0.531036
v -9.924585 2.035298 -0.531036
v -9.970301 4.006969 -0.531036
v -9.924585 2.090303 -0.531036
v -9.924585 2.090303 -0.462781
v -9.970301 2.090303 -0.462781
v -9.970301 3.948784 -0.531036
v -9.924585 3.948784 -0.462781
v -9.924585 3.329290 -0.509958
v -9.924585 2.709797 -0.509958
v -9.627581 4.006969 -0.421642
v -9.627581 2.035299 -0.421642
v -9.627581 4.006969 -0.509958
v -9.627581 2.035299 -0.509958
v -9.627581 3.948784 -0.509958
v -9.627581 2.090303 -0.509958
v -9.627581 4.006969 -0.462781
v -9.627581 2.035299 -0.462781
v -9.627581 3.948784 -0.462781
v -9.627581 2.090303 -0.462781
v -9.627581 3.329290 -0.509958
v -9.627581 4.006969 -0.572175
v -9.627581 2.035298 -0.572175
v -9.627581 4.006969 -0.483859
v -9.627581 2.035298 -0.483859
v -9.627581 3.948784 -0.483859
v -9.627581 2.090303 -0.483859
v -9.627581 4.006969 -0.531036
v -9.627581 2.035298 -0.531036
v -9.924585 3.329290 -0.483859
v -9.924585 2.709796 -0.483859
v -9.627581 3.329290 -0.483859
v -9.627581 2.709796 -0.483859
v -9.603670 4.006969 -0.421642
v -9.603670 2.035299 -0.421642
v -9.603670 4.006969 -0.509958
v -9.603670 2.035299 -0.509958
v -9.603670 3.948784 -0.509958
v -9.603670 2.090303 -0.509958
v -9.603670 4.006969 -0.462781
v -9.603670 2.035299 -0.462781
v -9.603670 3.948784 -0.462781
v -9.603670 2.090303 -0.462781
v -9.603670 3.948784 -0.523502
v -9.627581 3.948784 -0.523502
v -9.603670 2.090303 -0.523502
v -9.627581 2.090303 -0.523502
v -9.627581 2.709797 -0.523502
v -9.627581 3.329290 -0.523502
v -9.924585 2.727711 -0.509958
v -9.627581 2.727711 -0.509958
v -9.627581 2.727711 -0.523502
v -9.924585 3.301945 -0.509958
v -9.627581 3.301945 -0.509958
v -9.627581 3.301945 -0.523502
v -9.924585 2.691430 -0.509958
v -9.627581 2.691430 -0.509958
v -9.627581 2.691430 -0.523502
v -9.924585 2.116109 -0.509958
v -9.924585 2.116109 -0.462781
v -9.627581 2.116109 -0.509958
v -9.627581 2.116109 -0.523502
v -9.970301 2.116109 -0.421642
v -9.970301 2.116109 -0.509958
v -9.970301 2.116109 -0.462781
v -9.970301 3.921319 -0.421642
v -9.970301 3.921319 -0.509958
v -9.970301 3.921319 -0.462781
v -9.924585 3.921319 -0.509958
v -9.924585 3.921319 -0.462781
v -9.627581 3.921319 -0.509958
v -9.627581 3.921319 -0.523502
v -9.924585 3.350763 -0.509958
v -9.627581 3.350763 -0.509958
v -9.627581 3.350763 -0.523502
v -9.627581 3.948784 -0.518990
v -9.924585 3.948784 -0.518990
v -9.924585 2.116109 -0.518990
v -9.924585 2.090303 -0.518990
v -9.627581 2.090303 -0.518990
v -9.924585 3.350763 -0.518990
v -9.924585 3.329290 -0.518990
v -9.627581 3.329290 -0.518990
v -9.627581 2.116109 -0.518990
v -9.627581 3.350763 -0.518990
v -9.924585 3.301945 -0.518990
v -9.627581 3.301945 -0.518990
v -9.924585 3.921319 -0.518990
v -9.627581 3.921319 -0.518990
v -9.924585 2.727711 -0.518115
v -9.924585 2.709797 -0.518115
v -9.627581 2.727711 -0.518115
v -9.924585 2.691430 -0.518115
v -9.627581 2.691430 -0.518115
v -9.284861 4.006969 -0.421642
v -9.284861 4.006969 -0.572175
v -9.284861 2.035299 -0.421642
v -9.284861 2.035298 -0.572175
v -9.284861 2.035299 -0.509958
v -9.284861 4.006969 -0.509958
v -9.284861 4.006969 -0.483859
v -9.284861 2.035298 -0.483859
v -9.330575 4.006969 -0.421642
v -9.330575 2.035299 -0.421642
v -9.330575 4.006969 -0.509958
v -9.330575 2.035299 -0.509958
v -9.330575 4.006969 -0.572175
v -9.330575 2.035298 -0.572175
v -9.330575 4.006969 -0.483859
v -9.330575 2.035298 -0.483859
v -9.284861 3.948784 -0.421642
v -9.284861 3.948784 -0.572175
v -9.284861 3.948784 -0.509958
v -9.284861 3.948784 -0.483859
v -9.330575 3.948784 -0.483859
v -9.330575 3.948784 -0.509958
v -9.284861 2.090303 -0.572175
v -9.284861 2.090303 -0.483859
v -9.330575 2.090303 -0.483859
v -9.330575 2.090303 -0.509958
v -9.284861 2.090303 -0.421642
v -9.284861 2.090303 -0.509958
v -9.284861 3.948784 -0.462781
v -9.284861 4.006969 -0.462781
v -9.330575 4.006969 -0.462781
v -9.284861 2.090303 -0.531036
v -9.284861 2.035298 -0.531036
v -9.330575 2.035299 -0.462781
v -9.284861 2.035299 -0.462781
v -9.330575 4.006969 -0.531036
v -9.330575 2.035298 -0.531036
v -9.284861 4.006969 -0.531036
v -9.330575 2.090303 -0.531036
v -9.330575 2.090303 -0.462781
v -9.284861 2.090303 -0.462781
v -9.284861 3.948784 -0.531036
v -9.330575 3.948784 -0.462781
v -9.330575 3.329290 -0.509958
v -9.330575 2.709797 -0.509958
v -9.330575 3.329290 -0.483859
v -9.330575 2.709796 -0.483859
v -9.651491 4.006969 -0.421642
v -9.651491 2.035299 -0.421642
v -9.651491 4.006969 -0.509958
v -9.651491 2.035299 -0.509958
v -9.651491 3.948784 -0.509958
v -9.651491 2.090303 -0.509958
v -9.651491 4.006969 -0.462781
v -9.651491 2.035299 -0.462781
v -9.651491 3.948784 -0.462781
v -9.651491 2.090303 -0.462781
v -9.651491 3.948784 -0.523502
v -9.651491 2.090303 -0.523502
v -9.330575 2.727711 -0.509958
v -9.330575 3.301945 -0.509958
v -9.330575 2.691430 -0.509958
v -9.330575 2.116109 -0.509958
v -9.330575 2.116109 -0.462781
v -9.284861 2.116109 -0.421642
v -9.284861 2.116109 -0.509958
v -9.284861 2.116109 -0.462781
v -9.284861 3.921319 -0.421642
v -9.284861 3.921319 -0.509958
v -9.284861 3.921319 -0.462781
v -9.330575 3.921319 -0.509958
v -9.330575 3.921319 -0.462781
v -9.330575 3.350763 -0.509958
v -9.330575 3.948784 -0.518990
v -9.330575 2.116109 -0.518990
v -9.330575 2.090303 -0.518990
v -9.330575 3.350763 -0.518990
v -9.330575 3.329290 -0.518990
v -9.330575 3.301945 -0.518990
v -9.330575 3.921319 -0.518990
v -9.330575 2.727711 -0.518115
v -9.330575 2.709797 -0.518115
v -9.330575 2.691430 -0.518115
v -9.924585 3.948784 -0.531036
v -9.627581 3.948784 -0.531036
v -9.627581 2.090303 -0.531036
v -9.603670 3.329290 -0.509958
v -9.603670 2.709797 -0.523502
v -9.603670 3.329290 -0.523502
v -9.603670 2.727711 -0.523502
v -9.924585 3.306860 -0.509958
v -9.627581 3.306860 -0.509958
v -9.603670 3.301945 -0.509958
v -9.603670 3.301945 -0.523502
v -9.603670 2.691430 -0.523502
v -9.603670 2.116109 -0.509958
v -9.603670 2.116109 -0.523502
v -9.603670 3.921319 -0.509958
v -9.603670 3.921319 -0.523502
v -9.924585 3.346079 -0.509958
v -9.627581 3.346079 -0.509958
v -9.603670 3.350763 -0.509958
v -9.603670 3.350763 -0.523502
v -9.924585 3.346079 -0.518990
v -9.924585 3.328828 -0.518990
v -9.627581 3.328828 -0.518990
v -9.627581 3.346079 -0.518990
v -9.924585 3.306860 -0.518990
v -9.627581 3.306860 -0.518990
v -9.330575 3.948784 -0.531036
v -9.651491 3.329290 -0.509958
v -9.651491 2.709797 -0.523502
v -9.651491 3.329290 -0.523502
v -9.651491 2.727711 -0.523502
v -9.330575 3.306860 -0.509958
v -9.651491 3.301945 -0.509958
v -9.651491 3.301945 -0.523502
v -9.651491 2.691430 -0.523502
v -9.651491 2.116109 -0.509958
v -9.651491 2.116109 -0.523502
v -9.651491 3.921319 -0.509958
v -9.651491 3.921319 -0.523502
v -9.330575 3.346079 -0.509958
v -9.651491 3.350763 -0.509958
v -9.651491 3.350763 -0.523502
v -9.330575 3.346079 -0.518990
v -9.330575 3.328828 -0.518990
v -9.330575 3.306860 -0.518990
v -9.330575 3.948784 -0.493659
v -9.330575 2.090303 -0.493659
v -9.284861 2.090303 -0.446482
v -9.284861 2.035298 -0.446482
v -9.330575 4.006969 -0.446482
v -9.330575 2.035298 -0.446482
v -9.284861 4.006969 -0.446482
v -9.330575 2.090303 -0.446482
v -9.284861 3.948784 -0.446482
v -9.330575 3.948784 -0.446482
v -9.627581 3.329290 -0.467560
v -9.627581 3.948784 -0.493659
v -9.627581 2.090303 -0.493659
v -9.627581 4.006969 -0.446482
v -9.627581 2.035298 -0.446482
v -9.627581 3.948784 -0.446482
v -9.627581 2.090303 -0.446482
v -9.330575 3.329290 -0.493659
v -9.330575 2.709796 -0.493659
v -9.651491 3.948784 -0.467560
v -9.651491 2.090303 -0.467560
v -9.651491 3.329290 -0.467560
v -9.651491 3.948784 -0.454016
v -9.627581 3.948784 -0.454016
v -9.651491 2.090303 -0.454016
v -9.627581 2.090303 -0.454016
v -9.651491 2.709797 -0.454016
v -9.627581 2.709797 -0.454016
v -9.651491 3.329290 -0.454016
v -9.627581 3.329290 -0.454016
v -9.627581 2.727711 -0.454016
v -9.651491 2.727711 -0.454016
v -9.330575 3.311016 -0.467560
v -9.627581 3.311016 -0.467560
v -9.651491 3.301945 -0.467560
v -9.627581 3.301945 -0.454016
v -9.651491 3.301945 -0.454016
v -9.330575 2.691430 -0.467560
v -9.627581 2.691430 -0.467560
v -9.627581 2.691430 -0.454016
v -9.651491 2.691430 -0.454016
v -9.330575 2.116109 -0.467560
v -9.627581 2.116109 -0.467560
v -9.651491 2.116109 -0.467560
v -9.627581 2.116109 -0.454016
v -9.651491 2.116109 -0.454016
v -9.330575 3.921319 -0.467560
v -9.627581 3.921319 -0.467560
v -9.651491 3.921319 -0.467560
v -9.627581 3.921319 -0.454016
v -9.651491 3.921319 -0.454016
v -9.330575 3.342118 -0.467560
v -9.627581 3.342118 -0.467560
v -9.651491 3.350763 -0.467560
v -9.627581 3.350763 -0.454016
v -9.651491 3.350763 -0.454016
v -9.627581 3.948784 -0.458528
v -9.330575 3.948784 -0.458528
v -9.330575 2.116109 -0.458528
v -9.330575 2.090303 -0.458528
v -9.627581 2.090303 -0.458528
v -9.330575 3.342118 -0.458528
v -9.330575 3.328438 -0.458528
v -9.627581 3.328438 -0.458528
v -9.627581 2.116109 -0.458528
v -9.627581 3.342118 -0.458528
v -9.330575 3.311016 -0.458528
v -9.627581 3.311016 -0.458528
v -9.330575 3.921319 -0.458528
v -9.627581 3.921319 -0.458528
v -9.330575 2.727711 -0.459403
v -9.330575 2.709797 -0.459403
v -9.627581 2.727711 -0.459403
v -9.330575 2.691430 -0.459403
v -9.627581 2.691430 -0.459403
v -9.924585 3.948784 -0.493659
v -9.924585 2.090303 -0.493659
v -9.970301 2.090303 -0.446482
v -9.970301 2.035298 -0.446482
v -9.924585 4.006969 -0.446482
v -9.924585 2.035298 -0.446482
v -9.970301 4.006969 -0.446482
v -9.924585 2.090303 -0.446482
v -9.970301 3.948784 -0.446482
v -9.924585 3.948784 -0.446482
v -9.924585 3.329290 -0.493659
v -9.924585 2.709796 -0.493659
v -9.603670 3.948784 -0.467560
v -9.603670 2.090303 -0.467560
v -9.603670 3.329290 -0.467560
v -9.603670 3.948784 -0.454016
v -9.603670 2.090303 -0.454016
v -9.603670 2.709797 -0.454016
v -9.603670 3.329290 -0.454016
v -9.603670 2.727711 -0.454016
v -9.924585 3.311016 -0.467560
v -9.603670 3.301945 -0.467560
v -9.603670 3.301945 -0.454016
v -9.924585 2.691430 -0.467560
v -9.603670 2.691430 -0.454016
v -9.924585 2.116109 -0.467560
v -9.603670 2.116109 -0.467560
v -9.603670 2.116109 -0.454016
v -9.924585 3.921319 -0.467560
v -9.603670 3.921319 -0.467560
v -9.603670 3.921319 -0.454016
v -9.924585 3.342118 -0.467560
v -9.603670 3.350763 -0.467560
v -9.603670 3.350763 -0.454016
v -9.924585 3.948784 -0.458528
v -9.924585 2.116109 -0.458528
v -9.924585 2.090303 -0.458528
v -9.924585 3.342118 -0.458528
v -9.924585 3.328438 -0.458528
v -9.924585 3.311016 -0.458528
v -9.924585 3.921319 -0.458528
v -9.924585 2.727711 -0.459403
v -9.924585 2.709797 -0.459403
v -9.924585 2.691430 -0.459403
v -8.114245 4.006969 -0.421642
v -8.114245 4.006969 -0.572175
v -8.114245 2.035299 -0.421642
v -8.114245 2.035298 -0.572175
v -8.114245 2.035299 -0.509958
v -8.114245 4.006969 -0.509958
v -8.114245 4.006969 -0.483859
v -8.114245 2.035298 -0.483859
v -8.068530 4.006969 -0.421642
v -8.068530 2.035299 -0.421642
v -8.068530 4.006969 -0.509958
v -8.068530 2.035299 -0.509958
v -8.068530 4.006969 -0.572175
v -8.068530 2.035298 -0.572175
v -8.068530 4.006969 -0.483859
v -8.068530 2.035298 -0.483859
v -8.114245 3.948784 -0.421642
v -8.114245 3.948784 -0.572175
v -8.114245 3.948784 -0.509958
v -8.114245 3.948784 -0.483859
v -8.068530 3.948784 -0.483859
v -8.068530 3.948784 -0.509958
v -8.114245 2.090303 -0.572175
v -8.114245 2.090303 -0.483859
v -8.068530 2.090303 -0.483859
v -8.068530 2.090303 -0.509958
v -8.114245 2.090303 -0.421642
v -8.114245 2.090303 -0.509958
v -8.114245 3.948784 -0.462781
v -8.114245 4.006969 -0.462781
v -8.068530 4.006969 -0.462781
v -8.114245 2.090303 -0.531036
v -8.114245 2.035298 -0.531036
v -8.068530 2.035299 -0.462781
v -8.114245 2.035299 -0.462781
v -8.068530 4.006969 -0.531036
v -8.068530 2.035298 -0.531036
v -8.114245 4.006969 -0.531036
v -8.068530 2.090303 -0.531036
v -8.068530 2.090303 -0.462781
v -8.114245 2.090303 -0.462781
v -8.114245 3.948784 -0.531036
v -8.068530 3.948784 -0.462781
v -8.068530 3.329290 -0.509958
v -8.068530 2.709797 -0.509958
v -7.771525 4.006969 -0.421642
v -7.771525 2.035299 -0.421642
v -7.771525 4.006969 -0.509958
v -7.771525 2.035299 -0.509958
v -7.771525 3.948784 -0.509958
v -7.771525 2.090303 -0.509958
v -7.771525 4.006969 -0.462781
v -7.771525 2.035299 -0.462781
v -7.771525 3.948784 -0.462781
v -7.771525 2.090303 -0.462781
v -7.771525 3.329290 -0.509958
v -7.771525 4.006969 -0.572175
v -7.771525 2.035298 -0.572175
v -7.771525 4.006969 -0.483859
v -7.771525 2.035298 -0.483859
v -7.771525 3.948784 -0.483859
v -7.771525 2.090303 -0.483859
v -7.771525 4.006969 -0.531036
v -7.771525 2.035298 -0.531036
v -8.068530 3.329290 -0.483859
v -8.068530 2.709796 -0.483859
v -7.771525 3.329290 -0.483859
v -7.771525 2.709796 -0.483859
v -7.747614 4.006969 -0.421642
v -7.747614 2.035299 -0.421642
v -7.747614 4.006969 -0.509958
v -7.747614 2.035299 -0.509958
v -7.747614 3.948784 -0.509958
v -7.747614 2.090303 -0.509958
v -7.747614 4.006969 -0.462781
v -7.747614 2.035299 -0.462781
v -7.747614 3.948784 -0.462781
v -7.747614 2.090303 -0.462781
v -7.747614 3.948784 -0.523502
v -7.771525 3.948784 -0.523502
v -7.747614 2.090303 -0.523502
v -7.771525 2.090303 -0.523502
v -7.771525 2.709797 -0.523502
v -7.771525 3.329290 -0.523502
v -8.068530 2.727711 -0.509958
v -7.771525 2.727711 -0.509958
v -7.771525 2.727711 -0.523502
v -8.068530 3.301945 -0.509958
v -7.771525 3.301945 -0.509958
v -7.771525 3.301945 -0.523502
v -8.068530 2.691430 -0.509958
v -7.771525 2.691430 -0.509958
v -7.771525 2.691430 -0.523502
v -8.068530 2.116109 -0.509958
v -8.068530 2.116109 -0.462781
v -7.771525 2.116109 -0.509958
v -7.771525 2.116109 -0.523502
v -8.114245 2.116109 -0.421642
v -8.114245 2.116109 -0.509958
v -8.114245 2.116109 -0.462781
v -8.114245 3.921319 -0.421642
v -8.114245 3.921319 -0.509958
v -8.114245 3.921319 -0.462781
v -8.068530 3.921319 -0.509958
v -8.068530 3.921319 -0.462781
v -7.771525 3.921319 -0.509958
v -7.771525 3.921319 -0.523502
v -8.068530 3.350763 -0.509958
v -7.771525 3.350763 -0.509958
v -7.771525 3.350763 -0.523502
v -7.771525 3.948784 -0.518990
v -8.068530 3.948784 -0.518990
v -8.068530 2.116109 -0.518990
v -8.068530 2.090303 -0.518990
v -7.771525 2.090303 -0.518990
v -8.068530 3.350763 -0.518990
v -8.068530 3.329290 -0.518990
v -7.771525 3.329290 -0.518990
v -7.771525 2.116109 -0.518990
v -7.771525 3.350763 -0.518990
v -8.068530 3.301945 -0.518990
v -7.771525 3.301945 -0.518990
v -8.068530 3.921319 -0.518990
v -7.771525 3.921319 -0.518990
v -8.068530 2.727711 -0.518115
v -8.068530 2.709797 -0.518115
v -7.771525 2.727711 -0.518115
v -8.068530 2.691430 -0.518115
v -7.771525 2.691430 -0.518115
v -7.428804 4.006969 -0.421642
v -7.428804 4.006969 -0.572175
v -7.428804 2.035299 -0.421642
v -7.428804 2.035298 -0.572175
v -7.428804 2.035299 -0.509958
v -7.428804 4.006969 -0.509958
v -7.428804 4.006969 -0.483859
v -7.428804 2.035298 -0.483859
v -7.474519 4.006969 -0.421642
v -7.474519 2.035299 -0.421642
v -7.474519 4.006969 -0.509958
v -7.474519 2.035299 -0.509958
v -7.474519 4.006969 -0.572175
v -7.474519 2.035298 -0.572175
v -7.474519 4.006969 -0.483859
v -7.474519 2.035298 -0.483859
v -7.428804 3.948784 -0.421642
v -7.428804 3.948784 -0.572175
v -7.428804 3.948784 -0.509958
v -7.428804 3.948784 -0.483859
v -7.474519 3.948784 -0.483859
v -7.474519 3.948784 -0.509958
v -7.428804 2.090303 -0.572175
v -7.428804 2.090303 -0.483859
v -7.474519 2.090303 -0.483859
v -7.474519 2.090303 -0.509958
v -7.428804 2.090303 -0.421642
v -7.428804 2.090303 -0.509958
v -7.428804 3.948784 -0.462781
v -7.428804 4.006969 -0.462781
v -7.474519 4.006969 -0.462781
v -7.428804 2.090303 -0.531036
v -7.428804 2.035298 -0.531036
v -7.474519 2.035299 -0.462781
v -7.428804 2.035299 -0.462781
v -7.474519 4.006969 -0.531036
v -7.474519 2.035298 -0.531036
v -7.428804 4.006969 -0.531036
v -7.474519 2.090303 -0.531036
v -7.474519 2.090303 -0.462781
v -7.428804 2.090303 -0.462781
v -7.428804 3.948784 -0.531036
v -7.474519 3.948784 -0.462781
v -7.474519 3.329290 -0.509958
v -7.474519 2.709797 -0.509958
v -7.474519 3.329290 -0.483859
v -7.474519 2.709796 -0.483859
v -7.795436 4.006969 -0.421642
v -7.795436 2.035299 -0.421642
v -7.795436 4.006969 -0.509958
v -7.795436 2.035299 -0.509958
v -7.795436 3.948784 -0.509958
v -7.795436 2.090303 -0.509958
v -7.795436 4.006969 -0.462781
v -7.795436 2.035299 -0.462781
v -7.795436 3.948784 -0.462781
v -7.795436 2.090303 -0.462781
v -7.795436 3.948784 -0.523502
v -7.795436 2.090303 -0.523502
v -7.474519 2.727711 -0.509958
v -7.474519 3.301945 -0.509958
v -7.474519 2.691430 -0.509958
v -7.474519 2.116109 -0.509958
v -7.474519 2.116109 -0.462781
v -7.428804 2.116109 -0.421642
v -7.428804 2.116109 -0.509958
v -7.428804 2.116109 -0.462781
v -7.428804 3.921319 -0.421642
v -7.428804 3.921319 -0.509958
v -7.428804 3.921319 -0.462781
v -7.474519 3.921319 -0.509958
v -7.474519 3.921319 -0.462781
v -7.474519 3.350763 -0.509958
v -7.474519 3.948784 -0.518990
v -7.474519 2.116109 -0.518990
v -7.474519 2.090303 -0.518990
v -7.474519 3.350763 -0.518990
v -7.474519 3.329290 -0.518990
v -7.474519 3.301945 -0.518990
v -7.474519 3.921319 -0.518990
v -7.474519 2.727711 -0.518115
v -7.474519 2.709797 -0.518115
v -7.474519 2.691430 -0.518115
v -8.068530 3.948784 -0.531036
v -7.771525 3.948784 -0.531036
v -7.771525 2.090303 -0.531036
v -7.747614 3.329290 -0.509958
v -7.747614 2.709797 -0.523502
v -7.747614 3.329290 -0.523502
v -7.747614 2.727711 -0.523502
v -8.068530 3.306860 -0.509958
v -7.771525 3.306860 -0.509958
v -7.747614 3.301945 -0.509958
v -7.747614 3.301945 -0.523502
v -7.747614 2.691430 -0.523502
v -7.747614 2.116109 -0.509958
v -7.747614 2.116109 -0.523502
v -7.747614 3.921319 -0.509958
v -7.747614 3.921319 -0.523502
v -8.068530 3.346079 -0.509958
v -7.771525 3.346079 -0.509958
v -7.747614 3.350763 -0.509958
v -7.747614 3.350763 -0.523502
v -8.068530 3.346079 -0.518990
v -8.068530 3.328828 -0.518990
v -7.771525 3.328828 -0.518990
v -7.771525 3.346079 -0.518990
v -8.068530 3.306860 -0.518990
v -7.771525 3.306860 -0.518990
v -7.474519 3.948784 -0.531036
v -7.795436 3.329290 -0.509958
v -7.795436 2.709797 -0.523502
v -7.795436 3.329290 -0.523502
v -7.795436 2.727711 -0.523502
v -7.474519 3.306860 -0.509958
v -7.795436 3.301945 -0.509958
v -7.795436 3.301945 -0.523502
v -7.795436 2.691430 -0.523502
v -7.795436 2.116109 -0.509958
v -7.795436 2.116109 -0.523502
v -7.795436 3.921319 -0.509958
v -7.795436 3.921319 -0.523502
v -7.474519 3.346079 -0.509958
v -7.795436 3.350763 -0.509958
v -7.795436 3.350763 -0.523502
v -7.474519 3.346079 -0.518990
v -7.474519 3.328828 -0.518990
v -7.474519 3.306860 -0.518990
v -7.474519 3.948784 -0.493659
v -7.474519 2.090303 -0.493659
v -7.428804 2.090303 -0.446482
v -7.428804 2.035298 -0.446482
v -7.474519 4.006969 -0.446482
v -7.474519 2.035298 -0.446482
v -7.428804 4.006969 -0.446482
v -7.474519 2.090303 -0.446482
v -7.428804 3.948784 -0.446482
v -7.474519 3.948784 -0.446482
v -7.771525 3.329290 -0.467560
v -7.771525 3.948784 -0.493659
v -7.771525 2.090303 -0.493659
v -7.771525 4.006969 -0.446482
v -7.771525 2.035298 -0.446482
v -7.771525 3.948784 -0.446482
v -7.771525 2.090303 -0.446482
v -7.474519 3.329290 -0.493659
v -7.474519 2.709796 -0.493659
v -7.795436 3.948784 -0.467560
v -7.795436 2.090303 -0.467560
v -7.795436 3.329290 -0.467560
v -7.795436 3.948784 -0.454016
v -7.771525 3.948784 -0.454016
v -7.795436 2.090303 -0.454016
v -7.771525 2.090303 -0.454016
v -7.795436 2.709797 -0.454016
v -7.771525 2.709797 -0.454016
v -7.795436 3.329290 -0.454016
v -7.771525 3.329290 -0.454016
v -7.771525 2.727711 -0.454016
v -7.795436 2.727711 -0.454016
v -7.474519 3.311016 -0.467560
v -7.771525 3.311016 -0.467560
v -7.795436 3.301945 -0.467560
v -7.771525 3.301945 -0.454016
v -7.795436 3.301945 -0.454016
v -7.474519 2.691430 -0.467560
v -7.771525 2.691430 -0.467560
v -7.771525 2.691430 -0.454016
v -7.795436 2.691430 -0.454016
v -7.474519 2.116109 -0.467560
v -7.771525 2.116109 -0.467560
v -7.795436 2.116109 -0.467560
v -7.771525 2.116109 -0.454016
v -7.795436 2.116109 -0.454016
v -7.474519 3.921319 -0.467560
v -7.771525 3.921319 -0.467560
v -7.795436 3.921319 -0.467560
v -7.771525 3.921319 -0.454016
v -7.795436 3.921319 -0.454016
v -7.474519 3.342118 -0.467560
v -7.771525 3.342118 -0.467560
v -7.795436 3.350763 -0.467560
v -7.771525 3.350763 -0.454016
v -7.795436 3.350763 -0.454016
v -7.771525 3.948784 -0.458528
v -7.474519 3.948784 -0.458528
v -7.474519 2.116109 -0.458528
v -7.474519 2.090303 -0.458528
v -7.771525 2.090303 -0.458528
v -7.474519 3.342118 -0.458528
v -7.474519 3.328438 -0.458528
v -7.771525 3.328438 -0.458528
v -7.771525 2.116109 -0.458528
v -7.771525 3.342118 -0.458528
v -7.474519 3.311016 -0.458528
v -7.771525 3.311016 -0.458528
v -7.474519 3.921319 -0.458528
v -7.771525 3.921319 -0.458528
v -7.474519 2.727711 -0.459403
v -7.474519 2.709797 -0.459403
v -7.771525 2.727711 -0.459403
v -7.474519 2.691430 -0.459403
v -7.771525 2.691430 -0.459403
v -8.068530 3.948784 -0.493659
v -8.068530 2.090303 -0.493659
v -8.114245 2.090303 -0.446482
v -8.114245 2.035298 -0.446482
v -8.068530 4.006969 -0.446482
v -8.068530 2.035298 -0.446482
v -8.114245 4.006969 -0.446482
v -8.068530 2.090303 -0.446482
v -8.114245 3.948784 -0.446482
v -8.068530 3.948784 -0.446482
v -8.068530 3.329290 -0.493659
v -8.068530 2.709796 -0.493659
v -7.747614 3.948784 -0.467560
v -7.747614 2.090303 -0.467560
v -7.747614 3.329290 -0.467560
v -7.747614 3.948784 -0.454016
v -7.747614 2.090303 -0.454016
v -7.747614 2.709797 -0.454016
v -7.747614 3.329290 -0.454016
v -7.747614 2.727711 -0.454016
v -8.068530 3.311016 -0.467560
v -7.747614 3.301945 -0.467560
v -7.747614 3.301945 -0.454016
v -8.068530 2.691430 -0.467560
v -7.747614 2.691430 -0.454016
v -8.068530 2.116109 -0.467560
v -7.747614 2.116109 -0.467560
v -7.747614 2.116109 -0.454016
v -8.068530 3.921319 -0.467560
v -7.747614 3.921319 -0.467560
v -7.747614 3.921319 -0.454016
v -8.068530 3.342118 -0.467560
v -7.747614 3.350763 -0.467560
v -7.747614 3.350763 -0.454016
v -8.068530 3.948784 -0.458528
v -8.068530 2.116109 -0.458528
v -8.068530 2.090303 -0.458528
v -8.068530 3.342118 -0.458528
v -8.068530 3.328438 -0.458528
v -8.068530 3.311016 -0.458528
v -8.068530 3.921319 -0.458528
v -8.068530 2.727711 -0.459403
v -8.068530 2.709797 -0.459403
v -8.068530 2.691430 -0.459403
v -9.210629 3.874880 -0.087100
v -9.210629 2.977851 -0.087100
v -8.231998 3.874880 -0.120007
v -8.231998 2.977851 -0.120007
v -8.231998 2.977851 -0.137084
v -9.183556 3.874880 -0.120007
v -9.183556 2.977851 -0.120007
v -9.183556 2.977851 -0.137084
v -9.210629 2.093409 -0.087100
v -8.231998 2.093409 -0.120007
v -9.183556 2.093409 -0.120007
v -8.231998 2.939347 -0.120007
v -8.231998 2.939347 -0.137084
v -9.183556 2.939347 -0.120007
v -9.183556 2.939347 -0.137084
v -8.231998 3.016354 -0.120007
v -8.231998 3.016354 -0.137084
v -9.183556 3.016354 -0.120007
v -9.183556 3.016354 -0.137084
v -8.231998 3.016354 -0.066550
v -8.231998 2.977851 -0.049473
v -8.231998 3.016354 -0.049473
v -9.183556 3.016354 -0.066550
v -9.183556 2.977851 -0.049473
v -9.183556 3.016354 -0.049473
v -8.231998 2.939347 -0.066550
v -8.231998 2.939347 -0.049473
v -9.183556 2.939347 -0.066550
v -9.183556 2.939347 -0.049473
vn 1.0000 -0.0000 -0.0000
vn -1.0000 -0.0000 -0.0000
vn -0.0000 -1.0000 -0.0000
vn -0.0000 1.0000 -0.0000
vn -0.0000 -0.0000 -1.0000
vn -0.0000 -0.0000 1.0000
vn -1.0000 -0.0003 -0.0091
vn -0.0000 -0.9999 -0.0110
vn 1.0000 -0.0003 -0.0091
vn 1.0000 0.0002 -0.0089
vn -0.0000 -0.9996 -0.0286
vn -0.0000 -0.9999 -0.0100
vn -1.0000 0.0002 -0.0089
vn -0.0000 0.9996 0.0286
vn -0.0000 0.0286 -0.9996
vn -0.0141 0.0007 0.9999
vn -0.0145 -0.0007 -0.9999
vn 0.0141 0.0007 0.9999
vn 0.0145 -0.0007 -0.9999
vn -0.0000 -0.0286 0.9996
vn 0.0383 0.9993 -0.0000
vn 0.1224 0.9925 -0.0000
vn 0.2352 0.9719 -0.0000
vn 0.4290 0.9033 -0.0000
vn 0.8367 0.5476 -0.0000
vn -0.0383 0.9993 -0.0000
vn -0.1224 0.9925 -0.0000
vn -0.2352 0.9719 -0.0000
vn -0.4290 0.9033 -0.0000
vn -0.8367 0.5476 -0.0000
vn -0.0506 -0.9987 -0.0000
vn -0.1224 -0.9925 -0.0000
vn -0.2352 -0.9719 -0.0000
vn -0.4290 -0.9033 -0.0000
vn -0.7561 -0.6544 -0.0000
vn 0.0010 0.0021 1.0000
vn -1.0000 -0.0006 -0.0000
vn -0.0001 -1.0000 -0.0000
vn 0.0010 0.0021 -1.0000
vn 0.0506 -0.9987 -0.0000
vn 0.1224 -0.9925 -0.0000
vn 0.2352 -0.9719 -0.0000
vn 0.4290 -0.9033 -0.0000
vn 0.7561 -0.6544 -0.0000
vn -0.0010 0.0021 1.0000
vn 1.0000 -0.0006 -0.0000
vn 0.0001 -1.0000 -0.0000
vn -0.0010 0.0021 -1.0000
vn -0.0000 0.3722 -0.9282
vn -0.0000 0.1068 -0.9943
vn -0.0000 0.8314 -0.5556
vt 0.000000 0.372040
vt 0.000000 0.000000
vt 0.333333 0.000000
vt 0.333333 0.372040
vt 0.000000 0.744080
vt 0.333333 0.744080
vt 1.000000 0.000000
vt 1.000000 0.333333
vt 0.666667 0.333333
vt 0.666667 0.000000
vt 1.000000 0.333333
vt 1.000000 0.666667
vt 0.666667 0.666667
vt 0.666667 0.333333
vt 0.562500 0.437500
vt 0.625000 0.437500
vt 0.625000 0.500000
vt 0.562500 0.500000
vt 0.625000 0.750000
vt 0.562500 0.750000
vt 0.312500 0.500000
vt 0.375000 0.500000
vt 0.375000 0.750000
vt 0.312500 0.750000
vt 0.437359 0.437500
vt 0.437359 0.812500
vt 0.437359 0.500000
vt 0.437359 0.750000
vt 0.562500 0.812500
vt 0.625000 0.812500
vt 0.375000 0.437500
vt 0.687500 0.500000
vt 0.687500 0.750000
vt 0.375000 0.812500
vt 0.437359 0.718750
vt 0.562500 0.718750
vt 0.562500 0.718750
vt 0.437359 0.531250
vt 0.562500 0.531250
vt 0.856907 0.750000
vt 0.856907 0.500000
vt 0.862498 0.500000
vt 0.862498 0.750000
vt 0.867542 0.500000
vt 0.867542 0.750000
vt 0.875000 0.500000
vt 0.875000 0.750000
vt 0.625000 0.000000
vt 0.617866 0.253305
vt 0.612498 0.250812
vt 0.612498 0.000000
vt 0.606907 0.250000
vt 0.606907 0.000000
vt 0.375000 0.875000
vt 0.625000 0.875000
vt 0.625000 0.981907
vt 0.624115 0.987498
vt 0.621545 0.992542
vt 0.617542 0.996545
vt 0.612498 0.999114
vt 0.606907 1.000000
vt 0.375000 1.000000
vt 0.375000 0.000000
vt 0.375000 0.250000
vt 0.750000 0.500000
vt 0.750000 0.750000
vt 0.621545 0.257458
vt 0.624115 0.262502
vt 0.625000 0.268093
vt 0.625000 0.375000
vt 0.375000 0.375000
vt 0.345366 0.502977
vt 0.329786 0.541853
vt 0.329786 0.541853
vt 0.535357 0.449083
vt 0.404448 0.450918
vt 0.324083 0.583706
vt 0.324083 0.750000
vt 0.675917 0.500000
vt 0.375000 0.800917
vt 0.675917 0.750000
vt 0.625000 0.449083
vt 0.675917 0.750000
vt 0.625000 0.800917
vt 0.324083 0.583705
vt 0.439276 0.279324
vt 0.439276 0.264597
vt 0.603276 0.970676
vt 0.605664 0.970676
vt 0.603276 0.970676
vt 0.610724 0.985403
vt 0.605664 0.985403
vt 0.605664 0.264597
vt 0.610724 0.264597
vt 0.610724 0.970676
vt 0.610724 0.970676
vt 0.444059 0.985403
vt 0.439276 0.985403
vt 0.444059 0.985403
vt 0.610724 0.279324
vt 0.439276 0.970676
vt 0.610724 0.874955
vt 0.610724 0.874955
vt 0.439276 0.375045
vt 0.439276 0.375045
vt 0.605664 0.985403
vt 0.444059 0.874955
vt 0.444059 0.970676
vt 0.444059 0.874955
vt 0.444059 0.264597
vt 0.446303 0.985403
vt 0.439276 0.874955
vt 0.446303 0.970676
vt 0.605664 0.874955
vt 0.603276 0.985403
vt 0.497927 0.970676
vt 0.499485 0.970676
vt 0.549418 0.970676
vt 0.551796 0.970676
vt 0.553663 0.970676
vt 0.496330 0.970676
vt 0.446303 0.875000
vt 0.446303 0.874955
vt 0.605664 0.867298
vt 0.439276 0.874955
vt 0.610724 0.867298
vt 0.439276 0.867297
vt 0.444059 0.867297
vt 0.444059 0.867297
vt 0.610724 0.867297
vt 0.610724 0.375045
vt 0.551796 0.279324
vt 0.605664 0.279324
vt 0.605664 0.375045
vt 0.551796 0.375045
vt 0.610724 0.375045
vt 0.444059 0.279324
vt 0.497927 0.279324
vt 0.497927 0.375045
vt 0.444059 0.375045
vt 0.439276 0.867297
vt 0.439276 0.867297
vt 0.496330 0.875000
vt 0.496330 0.874955
vt 0.497927 0.874955
vt 0.499485 0.874955
vt 0.549418 0.874955
vt 0.549418 0.875000
vt 0.499485 0.875000
vt 0.551796 0.874955
vt 0.603276 0.985403
vt 0.603276 0.875000
vt 0.603276 0.874955
vt 0.553663 0.875000
vt 0.553663 0.874955
vt 0.549418 0.867297
vt 0.551796 0.867297
vt 0.496330 0.867297
vt 0.497927 0.867297
vt 0.603276 0.867298
vt 0.499485 0.867297
vt 0.446303 0.867297
vt 0.553663 0.867297
s 0
usemtl trim_color.001
f 1/1/1 2/2/1 4/3/1 3/4/1
f 7/5/2 8/1/2 6/4/2 5/6/2
f 3/7/3 7/8/3 5/9/3 1/10/3
f 8/11/4 4/12/4 2/13/4 6/14/4
f 19/18/1 16/17/1 14/19/1 20/20/1
f 12/21/3 15/22/3 13/23/3 21/24/3
f 17/25/4 33/25/4 25/26/4 9/26/4
f 15/22/1 22/27/1 23/28/1 13/23/1
f 21/24/3 37/24/3 28/21/3 12/21/3
f 33/25/1 34/15/1 26/29/1 25/26/1
f 35/18/2 36/20/2 30/19/2 32/17/2
f 28/21/3 37/24/3 29/23/3 31/22/3
f 31/22/2 29/23/2 39/28/2 38/27/2
f 18/15/3 10/29/3 26/29/3 34/15/3
f 46/25/2 48/26/2 47/29/2 45/15/2
f 45/15/3 47/29/3 43/29/3 41/15/3
f 42/25/1 41/15/1 43/29/1 44/26/1
f 46/25/4 42/25/4 44/26/4 48/26/4
f 57/35/7 56/26/7 55/29/7 59/36/7
f 59/36/8 55/29/8 51/29/8 61/37/8
f 63/35/9 61/37/9 51/29/9 52/26/9
f 57/35/4 63/35/4 52/26/4 56/26/4
f 54/25/4 50/25/4 64/38/4 58/38/4
f 64/38/1 62/39/1 61/37/1 63/35/1
f 50/25/10 49/15/10 62/39/10 64/38/10
f 60/39/11 59/36/11 61/37/11 62/39/11
f 53/15/12 60/39/12 62/39/12 49/15/12
f 58/38/2 57/35/2 59/36/2 60/39/2
f 54/25/13 58/38/13 60/39/13 53/15/13
f 58/38/4 64/38/4 63/35/4 57/35/4
f 69/15/4 65/15/4 67/29/4 71/29/4
f 66/25/2 68/26/2 67/29/2 65/15/2
f 70/25/3 72/26/3 68/26/3 66/25/3
f 81/35/1 83/36/1 79/29/1 80/26/1
f 83/36/14 85/37/14 75/29/14 79/29/14
f 87/35/2 76/26/2 75/29/2 85/37/2
f 81/35/3 80/26/3 76/26/3 87/35/3
f 78/25/3 82/38/3 88/38/3 74/25/3
f 88/38/2 87/35/2 85/37/2 86/39/2
f 74/25/2 88/38/2 86/39/2 73/15/2
f 84/39/14 86/39/14 85/37/14 83/36/14
f 77/15/14 73/15/14 86/39/14 84/39/14
f 82/38/1 84/39/1 83/36/1 81/35/1
f 78/25/1 77/15/1 84/39/1 82/38/1
f 82/38/3 81/35/3 87/35/3 88/38/3
f 45/15/5 41/15/5 65/15/5 69/15/5
f 47/29/6 48/26/6 72/26/6 71/29/6
f 41/15/5 42/25/5 66/25/5 65/15/5
f 44/26/6 43/29/6 67/29/6 68/26/6
f 42/25/5 46/25/5 70/25/5 66/25/5
f 46/25/5 45/15/5 69/15/5 70/25/5
f 48/26/6 44/26/6 68/26/6 72/26/6
f 43/29/6 47/29/6 71/29/6 67/29/6
f 53/15/15 49/15/15 73/15/15 77/15/15
f 55/29/16 56/26/16 80/26/16 79/29/16
f 49/15/17 50/25/17 74/25/17 73/15/17
f 52/26/18 51/29/18 75/29/18 76/26/18
f 50/25/5 54/25/5 78/25/5 74/25/5
f 54/25/19 53/15/19 77/15/19 78/25/19
f 56/26/6 52/26/6 76/26/6 80/26/6
f 51/29/20 55/29/20 79/29/20 75/29/20
f 93/54/5 94/55/5 95/56/5 97/57/5 98/58/5 99/59/5 100/60/5 96/61/5 89/62/5
f 93/54/5 107/62/5 110/61/5 114/60/5 113/59/5 112/58/5 111/57/5 109/56/5 94/55/5
f 127/40/31 129/43/31 138/42/31 134/41/31
f 129/43/32 130/45/32 137/44/32 138/42/32
f 130/45/33 131/47/33 136/46/33 137/44/33
f 131/48/34 132/51/34 135/50/34 136/49/34
f 132/51/35 128/53/35 133/52/35 135/50/35
f 122/64/39 123/71/39 124/70/39 134/69/39 138/68/39 137/67/39 136/49/39 135/50/39 133/52/39
f 141/40/40 148/41/40 152/42/40 143/43/40
f 143/43/41 152/42/41 151/44/41 144/45/41
f 144/45/42 151/44/42 150/46/42 145/47/42
f 145/48/43 150/49/43 149/50/43 146/51/43
f 146/51/44 149/50/44 147/52/44 142/53/44
f 140/64/48 147/52/48 149/50/48 150/49/48 151/67/48 152/68/48 148/69/48 124/70/48 123/71/48
f 93/54/3 89/62/3 121/62/3 125/54/3
f 107/62/3 93/54/3 125/54/3 139/62/3
f 172/72/49 173/73/49 154/74/49 155/72/49
f 170/75/50 172/76/50 155/76/50 158/75/50
f 171/77/4 167/78/4 156/78/4 157/77/4
f 159/79/1 158/75/1 155/72/1 154/74/1 157/77/1 156/80/1 153/81/1
f 169/82/5 170/75/5 158/75/5 159/82/5
f 173/73/51 171/77/51 157/77/51 154/74/51
f 168/83/3 169/79/3 159/79/3 153/81/3
f 167/80/6 168/84/6 153/84/6 156/80/6
f 166/81/2 163/78/2 162/77/2 165/74/2 164/76/2 161/75/2 160/79/2
f 164/72/49 165/74/49 177/74/49 176/72/49
f 161/75/50 164/76/50 176/76/50 175/75/50
f 162/77/4 163/78/4 178/78/4 180/85/4
f 160/82/5 161/75/5 175/75/5 179/82/5
f 165/74/51 162/77/51 180/85/51 177/74/51
f 166/81/3 160/79/3 179/79/3 174/81/3
f 163/80/6 166/84/6 174/84/6 178/80/6
f 323/86/4 325/86/4 317/87/4 313/87/4
f 336/97/2 337/99/2 314/98/2 312/98/2
f 312/98/4 314/98/4 321/101/4 319/101/4
f 313/87/2 317/87/2 333/110/2 332/110/2
f 375/111/1 376/111/1 350/99/1 337/99/1
f 325/86/3 346/86/3 342/87/3 317/87/3
f 374/111/2 375/111/2 337/99/2 336/97/2
f 317/87/1 342/87/1 341/110/1 333/110/1
f 337/99/1 350/99/1 344/98/1 314/98/1
f 314/98/3 344/98/3 343/101/3 321/101/3
f 316/94/4 347/94/4 345/100/4 324/100/4
f 374/111/2 377/151/2 378/151/2 375/111/2
f 328/92/1 338/92/1 379/115/1 378/151/1
f 570/86/4 560/87/4 564/87/4 572/86/4
f 559/98/4 566/101/4 568/101/4 561/98/4
f 572/86/3 564/87/3 589/87/3 593/86/3
f 561/98/3 568/101/3 590/101/3 591/98/3
f 605/125/3 628/141/3 632/127/3 609/112/3
f 603/112/4 626/142/4 628/141/4 605/125/4
f 688/98/4 690/98/4 697/101/4 695/101/4
f 690/98/3 720/98/3 719/101/3 697/101/3
f 697/101/3 719/101/3 609/112/3 605/125/3
f 936/152/3 939/154/3 940/155/3 937/153/3
f 946/2/4 944/2/4 945/2/4 947/2/4
f 947/163/6 945/160/6 937/153/6 940/155/6
f 950/2/3 951/2/3 949/2/3 948/2/3
f 951/163/6 940/155/6 937/153/6 949/160/6
f 955/2/3 952/2/3 954/2/3 957/2/3
f 957/163/5 954/160/5 953/153/5 956/155/5
f 960/2/4 961/2/4 959/2/4 958/2/4
f 961/163/5 956/155/5 953/153/5 959/160/5
usemtl base_color
f 18/15/5 24/16/5 16/17/5 19/18/5
f 26/29/6 10/29/6 11/30/6 27/30/6
f 12/31/5 17/25/5 22/27/5 15/22/5
f 40/32/4 27/33/4 11/33/4 24/32/4
f 12/31/5 28/31/5 33/25/5 17/25/5
f 13/23/6 23/28/6 9/26/6 21/34/6
f 16/17/4 24/32/4 11/33/4 14/19/4
f 18/15/5 34/15/5 40/16/5 24/16/5
f 20/20/6 14/19/6 11/30/6 10/29/6
f 34/15/5 35/18/5 32/17/5 40/16/5
f 28/31/5 31/22/5 38/27/5 33/25/5
f 29/23/6 37/34/6 25/26/6 39/28/6
f 32/17/4 30/19/4 27/33/4 40/32/4
f 36/20/6 26/29/6 27/30/6 30/19/6
f 37/34/6 21/34/6 9/26/6 25/26/6
usemtl trim_color
f 939/154/6 936/152/6 935/88/6 938/120/6
f 939/154/6 943/120/6 942/88/6 936/152/6
usemtl WiindowBox
f 95/40/21 102/41/21 106/42/21 97/43/21
f 97/43/22 106/42/22 105/44/22 98/45/22
f 98/45/23 105/44/23 104/46/23 99/47/23
f 99/48/24 104/49/24 103/50/24 100/51/24
f 100/51/25 103/50/25 101/52/25 96/53/25
f 89/63/1 96/53/1 101/52/1 90/64/1
f 92/65/4 102/41/4 95/40/4 94/66/4
f 90/64/6 101/52/6 103/50/6 104/49/6 105/67/6 106/68/6 102/69/6 92/70/6 91/71/6
f 109/40/26 111/43/26 120/42/26 116/41/26
f 111/43/27 112/45/27 119/44/27 120/42/27
f 112/45/28 113/47/28 118/46/28 119/44/28
f 113/48/29 114/51/29 117/50/29 118/49/29
f 114/51/30 110/53/30 115/52/30 117/50/30
f 107/63/2 108/64/2 115/52/2 110/53/2
f 92/65/4 94/66/4 109/40/4 116/41/4
f 108/64/6 91/71/6 92/70/6 116/69/6 120/68/6 119/67/6 118/49/6 117/50/6 115/52/6
f 125/54/36 121/62/36 128/61/36 132/60/36 131/59/36 130/58/36 129/57/36 127/56/36 126/55/36
f 121/63/37 122/64/37 133/52/37 128/53/37
f 124/65/38 126/66/38 127/40/38 134/41/38
f 125/54/45 126/55/45 141/56/45 143/57/45 144/58/45 145/59/45 146/60/45 142/61/45 139/62/45
f 139/63/46 142/53/46 147/52/46 140/64/46
f 124/65/47 148/41/47 141/40/47 126/66/47
f 89/63/3 90/64/3 122/64/3 121/63/3
f 90/64/3 91/71/3 123/71/3 122/64/3
f 108/64/3 107/63/3 139/63/3 140/64/3
f 91/71/3 108/64/3 140/64/3 123/71/3
usemtl shutters.002
f 22/27/1 19/18/1 20/20/1 23/28/1
f 17/25/5 18/15/5 19/18/5 22/27/5
f 23/28/6 20/20/6 10/29/6 9/26/6
f 17/25/2 9/26/2 10/29/2 18/15/2
f 38/27/2 39/28/2 36/20/2 35/18/2
f 33/25/5 38/27/5 35/18/5 34/15/5
f 39/28/6 25/26/6 26/29/6 36/20/6
f 70/25/1 69/15/1 71/29/1 72/26/1
f 194/86/4 184/87/4 188/87/4 196/86/4
f 284/88/1 202/89/1 223/89/1 285/90/1
f 186/91/2 199/92/2 209/92/2 210/91/2
f 198/93/1 182/94/1 187/94/1 200/93/1
f 189/95/3 181/91/3 186/91/3 191/96/3
f 207/97/1 183/98/1 185/98/1 208/99/1
f 182/94/3 193/100/3 195/100/3 187/94/3
f 183/98/4 190/101/4 192/101/4 185/98/4
f 226/102/3 189/95/3 191/96/3 228/103/3
f 238/104/4 194/86/4 196/86/4 240/105/4
f 181/91/1 197/106/1 199/92/1 186/91/1
f 200/93/2 187/94/2 218/94/2 222/93/2
f 231/107/4 206/108/4 220/108/4 235/109/4
f 184/87/1 203/110/1 204/110/1 188/87/1
f 279/111/2 208/99/2 221/99/2 280/111/2
f 196/86/3 188/87/3 213/87/3 217/86/3
f 278/111/1 207/97/1 208/99/1 279/111/1
f 233/112/6 235/109/6 220/108/6 275/113/6 285/90/6 223/89/6 234/114/6 232/103/6 211/96/6 210/91/6 209/92/6 283/115/6 280/111/6 221/99/6 215/98/6 214/101/6
f 240/105/3 196/86/3 217/86/3 244/105/3
f 228/103/4 191/96/4 211/96/4 232/103/4
f 191/96/4 186/91/4 210/91/4 211/96/4
f 188/87/2 204/110/2 212/110/2 213/87/2
f 208/99/2 185/98/2 215/98/2 221/99/2
f 185/98/3 192/101/3 214/101/3 215/98/3
f 187/94/4 195/100/4 216/100/4 218/94/4
f 225/116/1 265/117/1 268/118/1 224/119/1 288/120/1 284/88/1 285/90/1 275/113/1 274/113/1 271/121/1
f 288/120/1 224/119/1 297/119/1 296/120/1
f 203/110/1 198/93/1 200/93/1 204/110/1
f 276/122/1 231/107/1 262/107/1 277/123/1
f 253/124/3 230/114/3 260/114/3 259/124/3
f 202/89/3 230/114/3 234/114/3 223/89/3
f 192/101/3 229/125/3 233/112/3 214/101/3
f 251/126/4 228/103/4 232/103/4 255/126/4
f 256/127/6 258/128/6 235/109/6 233/112/6
f 257/124/6 255/126/6 232/103/6 234/114/6
f 254/129/4 231/107/4 235/109/4 258/128/4
f 249/130/3 226/102/3 228/103/3 251/126/3
f 190/101/4 227/112/4 229/125/4 192/101/4
f 195/100/4 239/131/4 243/131/4 216/100/4
f 245/132/5 201/133/5 241/134/5 247/135/5
f 193/100/3 237/136/3 239/131/3 195/100/3
f 205/137/5 246/138/5 248/139/5 242/140/5
f 246/138/5 245/132/5 247/135/5 248/139/5
f 230/114/3 253/124/3 257/124/3 234/114/3
f 229/125/3 252/141/3 256/127/3 233/112/3
f 227/112/4 250/142/4 252/141/4 229/125/4
f 231/107/4 254/129/4 261/129/4 262/107/4
f 272/143/1 276/122/1 277/123/1 273/144/1 263/145/1 267/146/1 270/147/1 269/148/1 266/149/1
f 206/108/4 231/107/4 295/107/4 294/108/4
f 236/150/1 269/148/1 270/147/1 264/150/1
f 266/149/6 269/148/6 268/118/6 265/117/6
f 278/111/1 279/111/1 282/151/1 281/151/1
f 276/122/6 272/143/6 271/121/6 274/113/6
f 224/119/1 268/118/1 301/118/1 297/119/1
f 206/108/1 274/113/1 275/113/1 220/108/1
f 279/111/2 280/111/2 283/115/2 282/151/2
f 204/110/2 200/93/2 222/93/2 212/110/2
f 230/114/1 286/152/1 287/153/1 260/114/1
f 199/92/2 282/151/2 283/115/2 209/92/2
f 197/106/1 281/151/1 282/151/1 199/92/1
f 289/154/6 286/152/6 284/88/6 288/120/6
f 231/107/2 276/122/2 299/122/2 295/107/2
f 286/152/1 289/154/1 290/155/1 287/153/1
f 286/152/2 230/114/2 291/114/2 304/152/2
f 274/113/1 206/108/1 294/108/1 293/113/1
f 269/148/2 236/150/2 298/150/2 302/148/2
f 265/117/1 225/116/1 306/116/1 305/117/1
f 230/114/3 202/89/3 292/89/3 291/114/3
f 202/89/1 284/88/1 303/88/1 292/89/1
f 236/150/2 289/154/2 300/154/2 298/150/2
f 225/116/1 271/121/1 308/121/1 306/116/1
f 266/149/3 265/117/3 305/117/3 307/149/3
f 272/143/2 266/149/2 307/149/2 309/143/2
f 380/88/2 381/90/2 352/89/2 331/89/2
f 315/91/1 339/91/1 338/92/1 328/92/1
f 327/93/2 329/93/2 316/94/2 311/94/2
f 318/95/3 320/96/3 315/91/3 310/91/3
f 311/94/3 316/94/3 324/100/3 322/100/3
f 226/102/3 228/103/3 320/96/3 318/95/3
f 238/104/4 240/105/4 325/86/4 323/86/4
f 310/91/2 315/91/2 328/92/2 326/106/2
f 231/107/4 235/109/4 349/108/4 335/108/4
f 233/112/6 343/101/6 344/98/6 350/99/6 376/111/6 379/115/6 338/92/6 339/91/6 340/96/6 232/103/6 234/114/6 352/89/6 381/90/6 373/113/6 349/108/6 235/109/6
f 240/105/3 244/105/3 346/86/3 325/86/3
f 228/103/4 232/103/4 340/96/4 320/96/4
f 320/96/4 340/96/4 339/91/4 315/91/4
f 354/116/2 371/121/2 372/113/2 373/113/2 381/90/2 380/88/2 382/120/2 353/119/2 370/118/2 369/117/2
f 382/120/2 386/120/2 387/119/2 353/119/2
f 332/110/2 333/110/2 329/93/2 327/93/2
f 361/124/3 367/124/3 260/114/3 230/114/3
f 331/89/3 352/89/3 234/114/3 230/114/3
f 321/101/3 343/101/3 233/112/3 229/125/3
f 359/126/4 363/126/4 232/103/4 228/103/4
f 364/127/6 233/112/6 235/109/6 366/128/6
f 365/124/6 234/114/6 232/103/6 363/126/6
f 362/129/4 366/128/4 235/109/4 231/107/4
f 357/130/3 359/126/3 228/103/3 226/102/3
f 319/101/4 321/101/4 229/125/4 227/112/4
f 324/100/4 345/100/4 243/131/4 239/131/4
f 355/132/5 247/135/5 241/134/5 330/133/5
f 322/100/3 324/100/3 239/131/3 237/136/3
f 334/137/5 242/140/5 248/139/5 356/138/5
f 356/138/5 248/139/5 247/135/5 355/132/5
f 230/114/3 234/114/3 365/124/3 361/124/3
f 229/125/3 233/112/3 364/127/3 360/141/3
f 227/112/4 229/125/4 360/141/4 358/142/4
f 231/107/4 262/107/4 368/129/4 362/129/4
f 335/108/4 385/108/4 295/107/4 231/107/4
f 266/149/6 369/117/6 370/118/6 269/148/6
f 276/122/6 372/113/6 371/121/6 272/143/6
f 353/119/2 387/119/2 388/118/2 370/118/2
f 335/108/2 349/108/2 373/113/2 372/113/2
f 375/111/1 378/151/1 379/115/1 376/111/1
f 333/110/1 341/110/1 351/93/1 329/93/1
f 326/106/2 328/92/2 378/151/2 377/151/2
f 289/154/6 382/120/6 380/88/6 286/152/6
f 372/113/2 384/113/2 385/108/2 335/108/2
f 369/117/2 390/117/2 391/116/2 354/116/2
f 230/114/3 291/114/3 383/89/3 331/89/3
f 331/89/2 383/89/2 389/88/2 380/88/2
f 354/116/2 391/116/2 392/121/2 371/121/2
f 266/149/3 307/149/3 390/117/3 369/117/3
f 410/154/3 409/120/3 413/120/3 416/154/3
f 241/134/3 201/133/3 393/133/3 394/134/3
f 205/137/4 242/140/4 395/140/4 219/137/4
f 245/132/1 246/138/1 205/137/1 219/137/1 393/133/1 201/133/1
f 403/156/6 398/157/6 264/150/6 270/147/6
f 404/158/6 397/159/6 263/145/6 273/144/6
f 408/160/6 259/124/6 260/114/6 287/153/6
f 410/154/1 236/150/1 264/150/1 290/155/1
f 402/2/2 396/2/2 398/2/2 403/2/2
f 407/2/2 253/2/2 259/2/2 408/2/2
f 397/159/6 399/161/6 267/146/6 263/145/6
f 399/161/6 403/156/6 270/147/6 267/146/6
f 406/162/6 404/158/6 273/144/6 277/123/6
f 254/2/2 405/2/2 406/2/2 261/2/2
f 261/129/6 406/162/6 277/123/6 262/107/6
f 411/2/2 407/2/2 408/2/2 412/2/2
f 412/163/6 408/160/6 287/153/6 290/155/6
f 398/157/6 412/163/6 290/155/6 264/150/6
f 396/2/2 411/2/2 412/2/2 398/2/2
f 304/152/6 291/114/6 292/89/6 303/88/6
f 418/148/6 415/150/6 414/119/6 417/118/6
f 295/107/6 299/122/6 293/113/6 294/108/6
f 415/150/6 416/154/6 413/120/6 414/119/6
f 284/88/4 286/152/4 304/152/4 303/88/4
f 276/122/3 274/113/3 293/113/3 299/122/3
f 400/118/4 401/148/4 418/148/4 417/118/4
f 405/2/2 402/2/2 403/2/2 399/2/2 397/2/2 404/2/2 406/2/2
f 219/137/5 395/140/5 244/105/5 217/86/5 213/87/5 212/110/5 222/93/5 218/94/5 216/100/5 243/131/5 394/134/5 393/133/5
f 305/117/6 306/116/6 308/121/6 309/143/6 307/149/6
f 271/121/4 272/143/4 309/143/4 308/121/4
f 410/154/3 416/154/3 435/120/3 432/120/3
f 241/134/3 394/134/3 419/133/3 330/133/3
f 334/137/4 348/137/4 395/140/4 242/140/4
f 355/132/2 330/133/2 419/133/2 348/137/2 334/137/2 356/138/2
f 426/156/6 270/147/6 264/150/6 422/157/6
f 427/158/6 273/144/6 263/145/6 421/159/6
f 431/160/6 287/153/6 260/114/6 367/124/6
f 425/2/1 426/2/1 422/2/1 420/2/1
f 430/2/1 431/2/1 367/2/1 361/2/1
f 421/159/6 263/145/6 267/146/6 423/161/6
f 423/161/6 267/146/6 270/147/6 426/156/6
f 429/162/6 277/123/6 273/144/6 427/158/6
f 362/2/1 368/2/1 429/2/1 428/2/1
f 368/129/6 262/107/6 277/123/6 429/162/6
f 433/2/1 434/2/1 431/2/1 430/2/1
f 434/163/6 290/155/6 287/153/6 431/160/6
f 422/157/6 264/150/6 290/155/6 434/163/6
f 420/2/1 422/2/1 434/2/1 433/2/1
f 304/152/6 389/88/6 383/89/6 291/114/6
f 418/148/6 437/118/6 436/119/6 415/150/6
f 295/107/6 385/108/6 384/113/6 299/122/6
f 415/150/6 436/119/6 435/120/6 416/154/6
f 380/88/4 389/88/4 304/152/4 286/152/4
f 276/122/3 299/122/3 384/113/3 372/113/3
f 424/118/4 437/118/4 418/148/4 401/148/4
f 428/2/1 429/2/1 427/2/1 421/2/1 423/2/1 426/2/1 425/2/1
f 348/137/5 419/133/5 394/134/5 243/131/5 345/100/5 347/94/5 351/93/5 341/110/5 342/87/5 346/86/5 244/105/5 395/140/5
f 390/117/6 307/149/6 309/143/6 392/121/6 391/116/6
f 371/121/4 392/121/4 309/143/4 272/143/4
f 490/154/3 489/120/3 499/120/3 503/154/3
f 449/134/3 438/133/3 447/133/3 453/134/3
f 439/137/4 450/140/4 454/140/4 445/137/4
f 455/132/2 456/138/2 439/137/2 445/137/2 447/133/2 438/133/2
f 474/156/5 466/157/5 467/150/5 473/147/5
f 478/158/5 464/159/5 465/145/5 477/144/5
f 488/160/5 460/124/5 461/114/5 487/153/5
f 490/154/2 448/150/2 467/150/2 492/155/2
f 472/2/1 459/2/1 466/2/1 474/2/1
f 486/2/1 457/2/1 460/2/1 488/2/1
f 464/159/5 469/161/5 468/146/5 465/145/5
f 469/161/5 474/156/5 473/147/5 468/146/5
f 483/162/5 478/158/5 477/144/5 482/123/5
f 458/2/1 481/2/1 483/2/1 462/2/1
f 462/129/5 483/162/5 482/123/5 463/107/5
f 491/2/1 486/2/1 488/2/1 493/2/1
f 493/163/5 488/160/5 487/153/5 492/155/5
f 466/157/5 493/163/5 492/155/5 467/150/5
f 459/2/1 491/2/1 493/2/1 466/2/1
f 507/152/5 494/114/5 495/89/5 506/88/5
f 505/148/5 501/150/5 500/119/5 504/118/5
f 498/107/5 502/122/5 496/113/5 497/108/5
f 501/150/5 503/154/5 499/120/5 500/119/5
f 484/88/4 485/152/4 507/152/4 506/88/4
f 480/122/3 479/113/3 496/113/3 502/122/3
f 470/118/4 471/148/4 505/148/4 504/118/4
f 481/2/1 472/2/1 474/2/1 469/2/1 464/2/1 478/2/1 483/2/1
f 445/137/6 454/140/6 452/105/6 443/86/6 441/87/6 440/110/6 446/93/6 444/94/6 442/100/6 451/131/6 453/134/6 447/133/6
f 508/117/5 509/116/5 511/121/5 512/143/5 510/149/5
f 475/121/4 476/143/4 512/143/4 511/121/4
f 490/154/3 503/154/3 550/120/3 544/120/3
f 449/134/3 453/134/3 522/133/3 513/133/3
f 514/137/4 520/137/4 454/140/4 450/140/4
f 523/132/1 513/133/1 522/133/1 520/137/1 514/137/1 524/138/1
f 535/156/5 473/147/5 467/150/5 531/157/5
f 537/158/5 477/144/5 465/145/5 530/159/5
f 543/160/5 487/153/5 461/114/5 528/124/5
f 534/2/2 535/2/2 531/2/2 527/2/2
f 542/2/2 543/2/2 528/2/2 525/2/2
f 530/159/5 465/145/5 468/146/5 532/161/5
f 532/161/5 468/146/5 473/147/5 535/156/5
f 540/162/5 482/123/5 477/144/5 537/158/5
f 526/2/2 529/2/2 540/2/2 539/2/2
f 529/129/5 463/107/5 482/123/5 540/162/5
f 545/2/2 546/2/2 543/2/2 542/2/2
f 546/163/5 492/155/5 487/153/5 543/160/5
f 531/157/5 467/150/5 492/155/5 546/163/5
f 527/2/2 531/2/2 546/2/2 545/2/2
f 507/152/5 553/88/5 547/89/5 494/114/5
f 505/148/5 552/118/5 551/119/5 501/150/5
f 498/107/5 549/108/5 548/113/5 502/122/5
f 501/150/5 551/119/5 550/120/5 503/154/5
f 541/88/4 553/88/4 507/152/4 485/152/4
f 480/122/3 502/122/3 548/113/3 538/113/3
f 533/118/4 552/118/4 505/148/4 471/148/4
f 539/2/2 540/2/2 537/2/2 530/2/2 532/2/2 535/2/2 534/2/2
f 520/137/6 522/133/6 453/134/6 451/131/6 517/100/6 519/94/6 521/93/6 515/110/6 516/87/6 518/86/6 452/105/6 454/140/6
f 554/117/5 510/149/5 512/143/5 556/121/5 555/116/5
f 536/121/4 556/121/4 512/143/4 476/143/4
f 660/88/1 578/89/1 599/89/1 661/90/1
f 574/93/1 558/94/1 563/94/1 576/93/1
f 565/95/3 557/91/3 562/91/3 567/96/3
f 583/97/1 559/98/1 561/98/1 584/99/1
f 558/94/3 569/100/3 571/100/3 563/94/3
f 602/102/3 565/95/3 567/96/3 604/103/3
f 614/104/4 570/86/4 572/86/4 616/105/4
f 557/91/1 573/106/1 575/92/1 562/91/1
f 576/93/2 563/94/2 594/94/2 598/93/2
f 607/107/4 582/108/4 596/108/4 611/109/4
f 560/87/1 579/110/1 580/110/1 564/87/1
f 655/111/2 584/99/2 597/99/2 656/111/2
f 654/111/1 583/97/1 584/99/1 655/111/1
f 609/112/6 611/109/6 596/108/6 651/113/6 661/90/6 599/89/6 610/114/6 608/103/6 587/96/6 586/91/6 585/92/6 659/115/6 656/111/6 597/99/6 591/98/6 590/101/6
f 616/105/3 572/86/3 593/86/3 620/105/3
f 604/103/4 567/96/4 587/96/4 608/103/4
f 567/96/4 562/91/4 586/91/4 587/96/4
f 564/87/2 580/110/2 588/110/2 589/87/2
f 584/99/2 561/98/2 591/98/2 597/99/2
f 563/94/4 571/100/4 592/100/4 594/94/4
f 601/116/1 641/117/1 644/118/1 600/119/1 664/120/1 660/88/1 661/90/1 651/113/1 650/113/1 647/121/1
f 664/120/1 600/119/1 673/119/1 672/120/1
f 579/110/1 574/93/1 576/93/1 580/110/1
f 652/122/1 607/107/1 638/107/1 653/123/1
f 629/124/3 606/114/3 636/114/3 635/124/3
f 578/89/3 606/114/3 610/114/3 599/89/3
f 568/101/3 605/125/3 609/112/3 590/101/3
f 627/126/4 604/103/4 608/103/4 631/126/4
f 632/127/6 634/128/6 611/109/6 609/112/6
f 633/124/6 631/126/6 608/103/6 610/114/6
f 630/129/4 607/107/4 611/109/4 634/128/4
f 625/130/3 602/102/3 604/103/3 627/126/3
f 566/101/4 603/112/4 605/125/4 568/101/4
f 571/100/4 615/131/4 619/131/4 592/100/4
f 621/132/5 577/133/5 617/134/5 623/135/5
f 569/100/3 613/136/3 615/131/3 571/100/3
f 581/137/5 622/138/5 624/139/5 618/140/5
f 622/138/5 621/132/5 623/135/5 624/139/5
f 606/114/3 629/124/3 633/124/3 610/114/3
f 607/107/4 630/129/4 637/129/4 638/107/4
f 648/143/1 652/122/1 653/123/1 649/144/1 639/145/1 643/146/1 646/147/1 645/148/1 642/149/1
f 582/108/4 607/107/4 671/107/4 670/108/4
f 612/150/1 645/148/1 646/147/1 640/150/1
f 642/149/6 645/148/6 644/118/6 641/117/6
f 654/111/1 655/111/1 658/151/1 657/151/1
f 652/122/6 648/143/6 647/121/6 650/113/6
f 600/119/1 644/118/1 677/118/1 673/119/1
f 582/108/1 650/113/1 651/113/1 596/108/1
f 655/111/2 656/111/2 659/115/2 658/151/2
f 580/110/2 576/93/2 598/93/2 588/110/2
f 606/114/1 662/152/1 663/153/1 636/114/1
f 575/92/2 658/151/2 659/115/2 585/92/2
f 573/106/1 657/151/1 658/151/1 575/92/1
f 665/154/6 662/152/6 660/88/6 664/120/6
f 607/107/2 652/122/2 675/122/2 671/107/2
f 662/152/1 665/154/1 666/155/1 663/153/1
f 662/152/2 606/114/2 667/114/2 680/152/2
f 650/113/1 582/108/1 670/108/1 669/113/1
f 645/148/2 612/150/2 674/150/2 678/148/2
f 641/117/1 601/116/1 682/116/1 681/117/1
f 606/114/3 578/89/3 668/89/3 667/114/3
f 578/89/1 660/88/1 679/88/1 668/89/1
f 612/150/2 665/154/2 676/154/2 674/150/2
f 601/116/1 647/121/1 684/121/1 682/116/1
f 642/149/3 641/117/3 681/117/3 683/149/3
f 648/143/2 642/149/2 683/149/2 685/143/2
f 699/86/4 701/86/4 693/87/4 689/87/4
f 756/88/2 757/90/2 728/89/2 707/89/2
f 691/91/1 715/91/1 714/92/1 704/92/1
f 703/93/2 705/93/2 692/94/2 687/94/2
f 694/95/3 696/96/3 691/91/3 686/91/3
f 712/97/2 713/99/2 690/98/2 688/98/2
f 687/94/3 692/94/3 700/100/3 698/100/3
f 602/102/3 604/103/3 696/96/3 694/95/3
f 614/104/4 616/105/4 701/86/4 699/86/4
f 686/91/2 691/91/2 704/92/2 702/106/2
f 705/93/1 727/93/1 723/94/1 692/94/1
f 607/107/4 611/109/4 725/108/4 711/108/4
f 689/87/2 693/87/2 709/110/2 708/110/2
f 751/111/1 752/111/1 726/99/1 713/99/1
f 701/86/3 722/86/3 718/87/3 693/87/3
f 750/111/2 751/111/2 713/99/2 712/97/2
f 609/112/6 719/101/6 720/98/6 726/99/6 752/111/6 755/115/6 714/92/6 715/91/6 716/96/6 608/103/6 610/114/6 728/89/6 757/90/6 749/113/6 725/108/6 611/109/6
f 616/105/3 620/105/3 722/86/3 701/86/3
f 604/103/4 608/103/4 716/96/4 696/96/4
f 696/96/4 716/96/4 715/91/4 691/91/4
f 693/87/1 718/87/1 717/110/1 709/110/1
f 713/99/1 726/99/1 720/98/1 690/98/1
f 692/94/4 723/94/4 721/100/4 700/100/4
f 730/116/2 747/121/2 748/113/2 749/113/2 757/90/2 756/88/2 758/120/2 729/119/2 746/118/2 745/117/2
f 758/120/2 762/120/2 763/119/2 729/119/2
f 708/110/2 709/110/2 705/93/2 703/93/2
f 737/124/3 743/124/3 636/114/3 606/114/3
f 707/89/3 728/89/3 610/114/3 606/114/3
f 735/126/4 739/126/4 608/103/4 604/103/4
f 740/127/6 609/112/6 611/109/6 742/128/6
f 741/124/6 610/114/6 608/103/6 739/126/6
f 738/129/4 742/128/4 611/109/4 607/107/4
f 733/130/3 735/126/3 604/103/3 602/102/3
f 695/101/4 697/101/4 605/125/4 603/112/4
f 700/100/4 721/100/4 619/131/4 615/131/4
f 731/132/5 623/135/5 617/134/5 706/133/5
f 698/100/3 700/100/3 615/131/3 613/136/3
f 710/137/5 618/140/5 624/139/5 732/138/5
f 732/138/5 624/139/5 623/135/5 731/132/5
f 606/114/3 610/114/3 741/124/3 737/124/3
f 605/125/3 609/112/3 740/127/3 736/141/3
f 603/112/4 605/125/4 736/141/4 734/142/4
f 607/107/4 638/107/4 744/129/4 738/129/4
f 711/108/4 761/108/4 671/107/4 607/107/4
f 642/149/6 745/117/6 746/118/6 645/148/6
f 750/111/2 753/151/2 754/151/2 751/111/2
f 652/122/6 748/113/6 747/121/6 648/143/6
f 729/119/2 763/119/2 764/118/2 746/118/2
f 711/108/2 725/108/2 749/113/2 748/113/2
f 751/111/1 754/151/1 755/115/1 752/111/1
f 709/110/1 717/110/1 727/93/1 705/93/1
f 704/92/1 714/92/1 755/115/1 754/151/1
f 702/106/2 704/92/2 754/151/2 753/151/2
f 665/154/6 758/120/6 756/88/6 662/152/6
f 748/113/2 760/113/2 761/108/2 711/108/2
f 745/117/2 766/117/2 767/116/2 730/116/2
f 606/114/3 667/114/3 759/89/3 707/89/3
f 707/89/2 759/89/2 765/88/2 756/88/2
f 730/116/2 767/116/2 768/121/2 747/121/2
f 642/149/3 683/149/3 766/117/3 745/117/3
f 786/154/3 785/120/3 789/120/3 792/154/3
f 617/134/3 577/133/3 769/133/3 770/134/3
f 581/137/4 618/140/4 771/140/4 595/137/4
f 621/132/1 622/138/1 581/137/1 595/137/1 769/133/1 577/133/1
f 779/156/6 774/157/6 640/150/6 646/147/6
f 780/158/6 773/159/6 639/145/6 649/144/6
f 784/160/6 635/124/6 636/114/6 663/153/6
f 786/154/1 612/150/1 640/150/1 666/155/1
f 778/2/2 772/2/2 774/2/2 779/2/2
f 783/2/2 629/2/2 635/2/2 784/2/2
f 773/159/6 775/161/6 643/146/6 639/145/6
f 775/161/6 779/156/6 646/147/6 643/146/6
f 782/162/6 780/158/6 649/144/6 653/123/6
f 630/2/2 781/2/2 782/2/2 637/2/2
f 637/129/6 782/162/6 653/123/6 638/107/6
f 787/2/2 783/2/2 784/2/2 788/2/2
f 788/163/6 784/160/6 663/153/6 666/155/6
f 774/157/6 788/163/6 666/155/6 640/150/6
f 772/2/2 787/2/2 788/2/2 774/2/2
f 680/152/6 667/114/6 668/89/6 679/88/6
f 794/148/6 791/150/6 790/119/6 793/118/6
f 671/107/6 675/122/6 669/113/6 670/108/6
f 791/150/6 792/154/6 789/120/6 790/119/6
f 660/88/4 662/152/4 680/152/4 679/88/4
f 652/122/3 650/113/3 669/113/3 675/122/3
f 776/118/4 777/148/4 794/148/4 793/118/4
f 781/2/2 778/2/2 779/2/2 775/2/2 773/2/2 780/2/2 782/2/2
f 595/137/5 771/140/5 620/105/5 593/86/5 589/87/5 588/110/5 598/93/5 594/94/5 592/100/5 619/131/5 770/134/5 769/133/5
f 681/117/6 682/116/6 684/121/6 685/143/6 683/149/6
f 647/121/4 648/143/4 685/143/4 684/121/4
f 786/154/3 792/154/3 811/120/3 808/120/3
f 617/134/3 770/134/3 795/133/3 706/133/3
f 710/137/4 724/137/4 771/140/4 618/140/4
f 731/132/2 706/133/2 795/133/2 724/137/2 710/137/2 732/138/2
f 802/156/6 646/147/6 640/150/6 798/157/6
f 803/158/6 649/144/6 639/145/6 797/159/6
f 807/160/6 663/153/6 636/114/6 743/124/6
f 801/2/1 802/2/1 798/2/1 796/2/1
f 806/2/1 807/2/1 743/2/1 737/2/1
f 797/159/6 639/145/6 643/146/6 799/161/6
f 799/161/6 643/146/6 646/147/6 802/156/6
f 805/162/6 653/123/6 649/144/6 803/158/6
f 738/2/1 744/2/1 805/2/1 804/2/1
f 744/129/6 638/107/6 653/123/6 805/162/6
f 809/2/1 810/2/1 807/2/1 806/2/1
f 810/163/6 666/155/6 663/153/6 807/160/6
f 798/157/6 640/150/6 666/155/6 810/163/6
f 796/2/1 798/2/1 810/2/1 809/2/1
f 680/152/6 765/88/6 759/89/6 667/114/6
f 794/148/6 813/118/6 812/119/6 791/150/6
f 671/107/6 761/108/6 760/113/6 675/122/6
f 791/150/6 812/119/6 811/120/6 792/154/6
f 756/88/4 765/88/4 680/152/4 662/152/4
f 652/122/3 675/122/3 760/113/3 748/113/3
f 800/118/4 813/118/4 794/148/4 777/148/4
f 804/2/1 805/2/1 803/2/1 797/2/1 799/2/1 802/2/1 801/2/1
f 724/137/5 795/133/5 770/134/5 619/131/5 721/100/5 723/94/5 727/93/5 717/110/5 718/87/5 722/86/5 620/105/5 771/140/5
f 766/117/6 683/149/6 685/143/6 768/121/6 767/116/6
f 747/121/4 768/121/4 685/143/4 648/143/4
f 866/154/3 865/120/3 875/120/3 879/154/3
f 825/134/3 814/133/3 823/133/3 829/134/3
f 815/137/4 826/140/4 830/140/4 821/137/4
f 831/132/2 832/138/2 815/137/2 821/137/2 823/133/2 814/133/2
f 850/156/5 842/157/5 843/150/5 849/147/5
f 854/158/5 840/159/5 841/145/5 853/144/5
f 864/160/5 836/124/5 837/114/5 863/153/5
f 866/154/2 824/150/2 843/150/2 868/155/2
f 848/2/1 835/2/1 842/2/1 850/2/1
f 862/2/1 833/2/1 836/2/1 864/2/1
f 840/159/5 845/161/5 844/146/5 841/145/5
f 845/161/5 850/156/5 849/147/5 844/146/5
f 859/162/5 854/158/5 853/144/5 858/123/5
f 834/2/1 857/2/1 859/2/1 838/2/1
f 838/129/5 859/162/5 858/123/5 839/107/5
f 867/2/1 862/2/1 864/2/1 869/2/1
f 869/163/5 864/160/5 863/153/5 868/155/5
f 842/157/5 869/163/5 868/155/5 843/150/5
f 835/2/1 867/2/1 869/2/1 842/2/1
f 883/152/5 870/114/5 871/89/5 882/88/5
f 881/148/5 877/150/5 876/119/5 880/118/5
f 874/107/5 878/122/5 872/113/5 873/108/5
f 877/150/5 879/154/5 875/120/5 876/119/5
f 860/88/4 861/152/4 883/152/4 882/88/4
f 856/122/3 855/113/3 872/113/3 878/122/3
f 846/118/4 847/148/4 881/148/4 880/118/4
f 857/2/1 848/2/1 850/2/1 845/2/1 840/2/1 854/2/1 859/2/1
f 821/137/6 830/140/6 828/105/6 819/86/6 817/87/6 816/110/6 822/93/6 820/94/6 818/100/6 827/131/6 829/134/6 823/133/6
f 884/117/5 885/116/5 887/121/5 888/143/5 886/149/5
f 851/121/4 852/143/4 888/143/4 887/121/4
f 866/154/3 879/154/3 926/120/3 920/120/3
f 825/134/3 829/134/3 898/133/3 889/133/3
f 890/137/4 896/137/4 830/140/4 826/140/4
f 899/132/1 889/133/1 898/133/1 896/137/1 890/137/1 900/138/1
f 911/156/5 849/147/5 843/150/5 907/157/5
f 913/158/5 853/144/5 841/145/5 906/159/5
f 919/160/5 863/153/5 837/114/5 904/124/5
f 910/2/2 911/2/2 907/2/2 903/2/2
f 918/2/2 919/2/2 904/2/2 901/2/2
f 906/159/5 841/145/5 844/146/5 908/161/5
f 908/161/5 844/146/5 849/147/5 911/156/5
f 916/162/5 858/123/5 853/144/5 913/158/5
f 902/2/2 905/2/2 916/2/2 915/2/2
f 905/129/5 839/107/5 858/123/5 916/162/5
f 921/2/2 922/2/2 919/2/2 918/2/2
f 922/163/5 868/155/5 863/153/5 919/160/5
f 907/157/5 843/150/5 868/155/5 922/163/5
f 903/2/2 907/2/2 922/2/2 921/2/2
f 883/152/5 929/88/5 923/89/5 870/114/5
f 881/148/5 928/118/5 927/119/5 877/150/5
f 874/107/5 925/108/5 924/113/5 878/122/5
f 877/150/5 927/119/5 926/120/5 879/154/5
f 917/88/4 929/88/4 883/152/4 861/152/4
f 856/122/3 878/122/3 924/113/3 914/113/3
f 909/118/4 928/118/4 881/148/4 847/148/4
f 915/2/2 916/2/2 913/2/2 906/2/2 908/2/2 911/2/2 910/2/2
f 896/137/6 898/133/6 829/134/6 827/131/6 893/100/6 895/94/6 897/93/6 891/110/6 892/87/6 894/86/6 828/105/6 830/140/6
f 930/117/5 886/149/5 888/143/5 932/121/5 931/116/5
f 912/121/4 932/121/4 888/143/4 852/143/4
l 182 237
l 213 219
l 311 237
l 342 348
l 558 613
l 589 595
l 687 613
l 718 724
l 933 934
l 941 934
